<?xml version="1.0" encoding="UTF-8" standalone="no"?>
<svg width="538.583px" height="111.3px" viewBox="0 0 538.583 111.3"
 xmlns="http://www.w3.org/2000/svg" xmlns:xlink="http://www.w3.org/1999/xlink" version="1.2" baseProfile="tiny">
<title>tune_C</title>
<desc>Generated by MuseScore 2.1.0</desc>
<polyline class="StaffLines" fill="none" stroke="#000000" stroke-width="0.40" stroke-linejoin="bevel" points="75.2656,31 538.583,31"/>
<polyline class="StaffLines" fill="none" stroke="#000000" stroke-width="0.40" stroke-linejoin="bevel" points="75.2656,36 538.583,36"/>
<polyline class="StaffLines" fill="none" stroke="#000000" stroke-width="0.40" stroke-linejoin="bevel" points="75.2656,41 538.583,41"/>
<polyline class="StaffLines" fill="none" stroke="#000000" stroke-width="0.40" stroke-linejoin="bevel" points="75.2656,46 538.583,46"/>
<polyline class="StaffLines" fill="none" stroke="#000000" stroke-width="0.40" stroke-linejoin="bevel" points="75.2656,51 538.583,51"/>
<polyline class="StaffLines" fill="none" stroke="#000000" stroke-width="0.40" stroke-linejoin="bevel" points="75.2656,83.5 538.583,83.5"/>
<polyline class="StaffLines" fill="none" stroke="#000000" stroke-width="0.40" stroke-linejoin="bevel" points="75.2656,88.5 538.583,88.5"/>
<polyline class="StaffLines" fill="none" stroke="#000000" stroke-width="0.40" stroke-linejoin="bevel" points="75.2656,93.5 538.583,93.5"/>
<polyline class="StaffLines" fill="none" stroke="#000000" stroke-width="0.40" stroke-linejoin="bevel" points="75.2656,98.5 538.583,98.5"/>
<polyline class="StaffLines" fill="none" stroke="#000000" stroke-width="0.40" stroke-linejoin="bevel" points="75.2656,103.5 538.583,103.5"/>
<path class="InstrumentName" d="M6.48438,91.7344 C6.48438,91.9427 6.46094,92.1406 6.41406,92.3281 C6.36719,92.5156 6.27344,92.7161 6.13281,92.9297 C5.99219,93.1432 5.80729,93.3281 5.57813,93.4844 C5.34896,93.6406 5.03385,93.7682 4.63281,93.8672 C4.23177,93.9661 3.76563,94.0156 3.23438,94.0156 C2.99479,94.0156 2.71875,94.0052 2.40625,93.9844 L2.40625,96.1875 C2.40625,96.625 2.47656,96.9115 2.61719,97.0469 C2.75781,97.1823 3.0625,97.2552 3.53125,97.2656 L3.53125,97.5 L0.1875,97.5 L0.1875,97.2656 C0.635417,97.2344 0.914063,97.151 1.02344,97.0156 C1.13281,96.8802 1.1875,96.5625 1.1875,96.0625 L1.1875,90.875 C1.1875,90.4375 1.13021,90.1589 1.01563,90.0391 C0.901042,89.9193 0.625,89.8333 0.1875,89.7813 L0.1875,89.5625 L3.34375,89.5625 C3.70833,89.5625 4.05729,89.5964 4.39063,89.6641 C4.72396,89.7318 5.05729,89.8411 5.39063,89.9922 C5.72396,90.1432 5.98958,90.3672 6.1875,90.6641 C6.38542,90.9609 6.48438,91.3177 6.48438,91.7344 M2.40625,90.4219 L2.40625,93.5313 C2.6875,93.5521 2.91667,93.5625 3.09375,93.5625 C4.48958,93.5625 5.1875,92.9792 5.1875,91.8125 C5.1875,91.1979 4.99479,90.7448 4.60938,90.4531 C4.22396,90.1615 3.625,90.0156 2.8125,90.0156 C2.65625,90.0156 2.54948,90.0443 2.49219,90.1016 C2.4349,90.1589 2.40625,90.2656 2.40625,90.4219 M7.65625,92.7813 C7.47917,92.7813 7.30729,92.7969 7.14063,92.8281 L7.14063,92.6406 C7.70313,92.4844 8.32292,92.2656 9,91.9844 L9.04688,92.0156 L9.04688,96.2813 C9.04688,96.7083 9.09896,96.9792 9.20313,97.0938 C9.30729,97.2083 9.55208,97.2813 9.9375,97.3125 L9.9375,97.5 L7.09375,97.5 L7.09375,97.3125 C7.51042,97.2917 7.77344,97.2214 7.88281,97.1016 C7.99219,96.9818 8.04688,96.7083 8.04688,96.2813 L8.04688,93.5 C8.04688,93.2292 8.01563,93.0417 7.95313,92.9375 C7.89063,92.8333 7.79167,92.7813 7.65625,92.7813 M8.4375,89.3125 C8.61458,89.3125 8.76302,89.3724 8.88281,89.4922 C9.0026,89.612 9.0625,89.7552 9.0625,89.9219 C9.0625,90.099 9.0026,90.2448 8.88281,90.3594 C8.76302,90.474 8.61458,90.5313 8.4375,90.5313 C8.27083,90.5313 8.13021,90.4714 8.01563,90.3516 C7.90104,90.2318 7.84375,90.0885 7.84375,89.9219 C7.84375,89.7552 7.90365,89.612 8.02344,89.4922 C8.14323,89.3724 8.28125,89.3125 8.4375,89.3125 M10.5313,96.3125 C10.5313,96.1667 10.5469,96.0339 10.5781,95.9141 C10.6094,95.7943 10.6667,95.6797 10.75,95.5703 C10.8333,95.4609 10.9089,95.362 10.9766,95.2734 C11.0443,95.1849 11.151,95.0964 11.2969,95.0078 C11.4427,94.9193 11.5651,94.8438 11.6641,94.7813 C11.763,94.7188 11.9089,94.6458 12.1016,94.5625 C12.2943,94.4792 12.4427,94.4167 12.5469,94.375 C12.651,94.3333 12.8151,94.2682 13.0391,94.1797 C13.263,94.0911 13.4271,94.026 13.5313,93.9844 L13.5313,93.2656 C13.5313,92.599 13.2292,92.2656 12.625,92.2656 C12.3854,92.2656 12.1797,92.3255 12.0078,92.4453 C11.8359,92.5651 11.75,92.7031 11.75,92.8594 C11.75,92.9219 11.7604,93.0104 11.7813,93.125 C11.8021,93.2396 11.8125,93.3125 11.8125,93.3438 C11.8125,93.4792 11.7604,93.5964 11.6563,93.6953 C11.5521,93.7943 11.4271,93.8438 11.2813,93.8438 C11.1458,93.8438 11.026,93.7917 10.9219,93.6875 C10.8177,93.5833 10.7656,93.4635 10.7656,93.3281 C10.7656,92.9531 10.9583,92.6354 11.3438,92.375 C11.7292,92.1146 12.2083,91.9844 12.7813,91.9844 C13.4375,91.9844 13.888,92.1406 14.1328,92.4531 C14.3776,92.7656 14.5,93.2448 14.5,93.8906 L14.5,96.2188 C14.5,96.4792 14.526,96.6589 14.5781,96.7578 C14.6302,96.8568 14.724,96.9063 14.8594,96.9063 C15.026,96.9063 15.2031,96.8333 15.3906,96.6875 L15.3906,97 C15.1823,97.2396 15,97.4036 14.8438,97.4922 C14.6875,97.5807 14.5104,97.625 14.3125,97.625 C14.0625,97.625 13.8802,97.5547 13.7656,97.4141 C13.651,97.2734 13.5781,97.0417 13.5469,96.7188 C12.8594,97.3229 12.276,97.625 11.7969,97.625 C11.4219,97.625 11.1172,97.5026 10.8828,97.2578 C10.6484,97.013 10.5313,96.6979 10.5313,96.3125 M13.5313,96 L13.5313,94.2813 C12.8125,94.5417 12.3099,94.7943 12.0234,95.0391 C11.737,95.2839 11.5938,95.5833 11.5938,95.9375 C11.5938,96.2604 11.6719,96.5026 11.8281,96.6641 C11.9844,96.8255 12.1563,96.9063 12.3438,96.9063 C12.6146,96.9063 12.9063,96.8125 13.2188,96.625 C13.3438,96.5521 13.4271,96.4766 13.4688,96.3984 C13.5104,96.3203 13.5313,96.1875 13.5313,96 M15.5781,92.7188 L15.5781,92.5156 C16.1615,92.3385 16.7135,92.1615 17.2344,91.9844 L17.3125,92 L17.3125,92.9375 C17.7188,92.5625 18.0391,92.3099 18.2734,92.1797 C18.5078,92.0495 18.7656,91.9844 19.0469,91.9844 C19.4844,91.9844 19.8307,92.1406 20.0859,92.4531 C20.3411,92.7656 20.4688,93.2031 20.4688,93.7656 L20.4688,96.5313 C20.4688,96.8229 20.5156,97.0182 20.6094,97.1172 C20.7031,97.2161 20.901,97.2813 21.2031,97.3125 L21.2031,97.5 L18.7031,97.5 L18.7031,97.3125 C19.0052,97.2917 19.2057,97.2135 19.3047,97.0781 C19.4036,96.9427 19.4531,96.6875 19.4531,96.3125 L19.4531,93.7969 C19.4531,93.0156 19.1615,92.625 18.5781,92.625 C18.3802,92.625 18.1979,92.6719 18.0313,92.7656 C17.8646,92.8594 17.6354,93.0417 17.3438,93.3125 L17.3438,96.6875 C17.3438,96.9063 17.401,97.0599 17.5156,97.1484 C17.6302,97.237 17.8385,97.2917 18.1406,97.3125 L18.1406,97.5 L15.5938,97.5 L15.5938,97.3125 C15.8958,97.2917 16.0964,97.224 16.1953,97.1094 C16.2943,96.9948 16.3438,96.7656 16.3438,96.4219 L16.3438,93.4375 C16.3438,93.1354 16.3125,92.9323 16.25,92.8281 C16.1875,92.724 16.0677,92.6719 15.8906,92.6719 C15.7448,92.6719 15.6406,92.6875 15.5781,92.7188 M24.2656,91.9844 C25.0365,91.9844 25.6693,92.2396 26.1641,92.75 C26.6589,93.2604 26.9063,93.9063 26.9063,94.6875 C26.9063,95.5208 26.6484,96.2188 26.1328,96.7813 C25.6172,97.3438 24.9844,97.625 24.2344,97.625 C23.4844,97.625 22.8594,97.3542 22.3594,96.8125 C21.8594,96.2708 21.6094,95.599 21.6094,94.7969 C21.6094,93.9635 21.8568,93.2865 22.3516,92.7656 C22.8464,92.2448 23.4844,91.9844 24.2656,91.9844 M22.6875,94.2031 C22.6875,95.0573 22.8438,95.7813 23.1563,96.375 C23.4688,96.9688 23.8802,97.2656 24.3906,97.2656 C24.8281,97.2656 25.1771,97.0755 25.4375,96.6953 C25.6979,96.3151 25.8281,95.7865 25.8281,95.1094 C25.8281,94.2969 25.6667,93.6328 25.3438,93.1172 C25.0208,92.6016 24.6094,92.3438 24.1094,92.3438 C23.6823,92.3438 23.3385,92.513 23.0781,92.8516 C22.8177,93.1901 22.6875,93.6406 22.6875,94.2031 M28.9063,97.5313 C28.9063,97.5313 28.875,97.5365 28.8125,97.5469 C28.7396,97.5677 28.6615,97.5781 28.5781,97.5781 C28.3698,97.5781 28.2005,97.5234 28.0703,97.4141 C27.9401,97.3047 27.875,97.151 27.875,96.9531 C27.875,96.7552 27.9401,96.5938 28.0703,96.4688 C28.2005,96.3438 28.3698,96.2813 28.5781,96.2813 C28.849,96.2813 29.0781,96.3828 29.2656,96.5859 C29.4531,96.7891 29.5469,97.0417 29.5469,97.3438 C29.5469,97.7083 29.4219,98.0573 29.1719,98.3906 C28.9219,98.724 28.599,98.9896 28.2031,99.1875 L28.0938,98.9688 C28.75,98.5208 29.0781,98.0938 29.0781,97.6875 C29.0781,97.5833 29.0208,97.5313 28.9063,97.5313 M36.2188,90.0938 L35.5781,90.0938 C34.9115,90.0938 34.4635,90.1823 34.2344,90.3594 C34.0052,90.5365 33.8177,90.9479 33.6719,91.5938 L33.3906,91.5938 L33.4531,89.5625 L40.2188,89.5625 L40.2969,91.5938 L40,91.5938 C39.8646,90.9479 39.6823,90.5365 39.4531,90.3594 C39.224,90.1823 38.7708,90.0938 38.0938,90.0938 L37.4531,90.0938 L37.4531,96.2031 C37.4531,96.6406 37.5208,96.9219 37.6563,97.0469 C37.7917,97.1719 38.1042,97.2448 38.5938,97.2656 L38.5938,97.5 L35.0938,97.5 L35.0938,97.2656 C35.5938,97.2344 35.9063,97.1536 36.0313,97.0234 C36.1563,96.8932 36.2188,96.5729 36.2188,96.0625 L36.2188,90.0938 M44.0781,93.1563 C43.9635,93.1563 43.8177,93.0807 43.6406,92.9297 C43.4635,92.7786 43.3438,92.7031 43.2813,92.7031 C43.125,92.7031 42.9479,92.8203 42.75,93.0547 C42.5521,93.2891 42.4531,93.5 42.4531,93.6875 L42.4531,96.4063 C42.4531,96.7604 42.5208,96.9974 42.6563,97.1172 C42.7917,97.237 43.0625,97.3021 43.4688,97.3125 L43.4688,97.5 L40.5938,97.5 L40.5938,97.3125 C40.9792,97.25 41.2161,97.1719 41.3047,97.0781 C41.3932,96.9844 41.4375,96.7865 41.4375,96.4844 L41.4375,93.4688 C41.4375,93.1979 41.4089,93.0078 41.3516,92.8984 C41.2943,92.7891 41.1875,92.7344 41.0313,92.7344 C40.9063,92.7344 40.7656,92.75 40.6094,92.7813 L40.6094,92.5938 C41.2552,92.3958 41.849,92.1927 42.3906,91.9844 L42.4531,92 L42.4531,93.0781 C42.7448,92.6615 42.9948,92.375 43.2031,92.2188 C43.4115,92.0625 43.6406,91.9844 43.8906,91.9844 C44.099,91.9844 44.2604,92.0391 44.375,92.1484 C44.4896,92.2578 44.5469,92.4167 44.5469,92.625 C44.5469,92.7917 44.5052,92.9219 44.4219,93.0156 C44.3385,93.1094 44.224,93.1563 44.0781,93.1563 M44.8906,96.3125 C44.8906,96.1667 44.9063,96.0339 44.9375,95.9141 C44.9688,95.7943 45.026,95.6797 45.1094,95.5703 C45.1927,95.4609 45.2682,95.362 45.3359,95.2734 C45.4036,95.1849 45.5104,95.0964 45.6563,95.0078 C45.8021,94.9193 45.9245,94.8438 46.0234,94.7813 C46.1224,94.7188 46.2682,94.6458 46.4609,94.5625 C46.6536,94.4792 46.8021,94.4167 46.9063,94.375 C47.0104,94.3333 47.1745,94.2682 47.3984,94.1797 C47.6224,94.0911 47.7865,94.026 47.8906,93.9844 L47.8906,93.2656 C47.8906,92.599 47.5885,92.2656 46.9844,92.2656 C46.7448,92.2656 46.5391,92.3255 46.3672,92.4453 C46.1953,92.5651 46.1094,92.7031 46.1094,92.8594 C46.1094,92.9219 46.1198,93.0104 46.1406,93.125 C46.1615,93.2396 46.1719,93.3125 46.1719,93.3438 C46.1719,93.4792 46.1198,93.5964 46.0156,93.6953 C45.9115,93.7943 45.7865,93.8438 45.6406,93.8438 C45.5052,93.8438 45.3854,93.7917 45.2813,93.6875 C45.1771,93.5833 45.125,93.4635 45.125,93.3281 C45.125,92.9531 45.3177,92.6354 45.7031,92.375 C46.0885,92.1146 46.5677,91.9844 47.1406,91.9844 C47.7969,91.9844 48.2474,92.1406 48.4922,92.4531 C48.737,92.7656 48.8594,93.2448 48.8594,93.8906 L48.8594,96.2188 C48.8594,96.4792 48.8854,96.6589 48.9375,96.7578 C48.9896,96.8568 49.0833,96.9063 49.2188,96.9063 C49.3854,96.9063 49.5625,96.8333 49.75,96.6875 L49.75,97 C49.5417,97.2396 49.3594,97.4036 49.2031,97.4922 C49.0469,97.5807 48.8698,97.625 48.6719,97.625 C48.4219,97.625 48.2396,97.5547 48.125,97.4141 C48.0104,97.2734 47.9375,97.0417 47.9063,96.7188 C47.2188,97.3229 46.6354,97.625 46.1563,97.625 C45.7813,97.625 45.4766,97.5026 45.2422,97.2578 C45.0078,97.013 44.8906,96.6979 44.8906,96.3125 M47.8906,96 L47.8906,94.2813 C47.1719,94.5417 46.6693,94.7943 46.3828,95.0391 C46.0964,95.2839 45.9531,95.5833 45.9531,95.9375 C45.9531,96.2604 46.0313,96.5026 46.1875,96.6641 C46.3438,96.8255 46.5156,96.9063 46.7031,96.9063 C46.974,96.9063 47.2656,96.8125 47.5781,96.625 C47.7031,96.5521 47.7865,96.4766 47.8281,96.3984 C47.8698,96.3203 47.8906,96.1875 47.8906,96 M50.1094,94.9375 C50.1094,94.0521 50.3724,93.3385 50.8984,92.7969 C51.4245,92.2552 52.0365,91.9844 52.7344,91.9844 C53.2448,91.9844 53.6797,92.1068 54.0391,92.3516 C54.3984,92.5964 54.5781,92.8854 54.5781,93.2188 C54.5781,93.3542 54.5234,93.4714 54.4141,93.5703 C54.3047,93.6693 54.1719,93.7188 54.0156,93.7188 C53.7448,93.7188 53.5573,93.5365 53.4531,93.1719 L53.375,92.9063 C53.3125,92.6875 53.2318,92.5391 53.1328,92.4609 C53.0339,92.3828 52.8802,92.3438 52.6719,92.3438 C52.1823,92.3438 51.7865,92.5365 51.4844,92.9219 C51.1823,93.3073 51.0313,93.8073 51.0313,94.4219 C51.0313,95.099 51.2057,95.6563 51.5547,96.0938 C51.9036,96.5313 52.349,96.75 52.8906,96.75 C53.2344,96.75 53.5313,96.6667 53.7813,96.5 C54.0313,96.3333 54.2969,96.0417 54.5781,95.625 L54.75,95.7344 C54.6771,95.8906 54.6094,96.0208 54.5469,96.125 C54.4844,96.2292 54.375,96.3854 54.2188,96.5938 C54.0625,96.8021 53.9089,96.9714 53.7578,97.1016 C53.6068,97.2318 53.4063,97.3516 53.1563,97.4609 C52.9063,97.5703 52.651,97.625 52.3906,97.625 C51.724,97.625 51.1771,97.375 50.75,96.875 C50.3229,96.375 50.1094,95.7292 50.1094,94.9375 M55.25,90.0313 L55.25,89.8438 C55.9271,89.6667 56.5469,89.4896 57.1094,89.3125 L57.1563,89.3281 L57.1563,94.375 L58.7969,92.9063 C58.9844,92.75 59.0781,92.6146 59.0781,92.5 C59.0781,92.4167 59.0339,92.3594 58.9453,92.3281 C58.8568,92.2969 58.6979,92.276 58.4688,92.2656 L58.4688,92.1094 L60.9219,92.1094 L60.9219,92.2813 C60.7344,92.2813 60.5859,92.2917 60.4766,92.3125 C60.3672,92.3333 60.2135,92.388 60.0156,92.4766 C59.8177,92.5651 59.5859,92.7161 59.3203,92.9297 C59.0547,93.1432 58.724,93.4323 58.3281,93.7969 L57.9844,94.125 L59.8125,96.4375 C60.0625,96.75 60.2943,96.9714 60.5078,97.1016 C60.7214,97.2318 60.9583,97.3021 61.2188,97.3125 L61.2188,97.5 L58.6094,97.5 L58.6094,97.3125 C58.9219,97.3125 59.0781,97.2552 59.0781,97.1406 C59.0781,97.1094 59.0677,97.0703 59.0469,97.0234 C59.026,96.9766 58.9896,96.9245 58.9375,96.8672 C58.8854,96.8099 58.849,96.7656 58.8281,96.7344 L57.1563,94.4844 L57.1563,96.5469 C57.1563,96.8281 57.2005,97.0104 57.2891,97.0938 C57.3776,97.1771 57.6302,97.25 58.0469,97.3125 L58.0469,97.5 L55.25,97.5 L55.25,97.3125 C55.6771,97.25 55.9323,97.1797 56.0156,97.1016 C56.099,97.0234 56.1406,96.8281 56.1406,96.5156 L56.1406,90.7344 C56.1406,90.4427 56.1042,90.2474 56.0313,90.1484 C55.9583,90.0495 55.8229,90 55.625,90 C55.5104,90 55.3854,90.0104 55.25,90.0313 M66.4531,90.3906 C66.3177,90.3906 66.0313,90.4792 65.5938,90.6563 L65.5938,90.4844 L67.75,89.3906 L67.8594,89.4219 L67.8594,96.6094 C67.8594,96.901 67.9297,97.0911 68.0703,97.1797 C68.2109,97.2682 68.5156,97.3125 68.9844,97.3125 L68.9844,97.5 L65.6875,97.5 L65.6875,97.3125 C66.1354,97.3021 66.4349,97.2396 66.5859,97.125 C66.737,97.0104 66.8125,96.7656 66.8125,96.3906 L66.8125,90.9531 C66.8125,90.5781 66.6927,90.3906 66.4531,90.3906"/>
<path class="InstrumentName" d="M6.48438,39.2344 C6.48438,39.4427 6.46094,39.6406 6.41406,39.8281 C6.36719,40.0156 6.27344,40.2161 6.13281,40.4297 C5.99219,40.6432 5.80729,40.8281 5.57813,40.9844 C5.34896,41.1406 5.03385,41.2682 4.63281,41.3672 C4.23177,41.4661 3.76563,41.5156 3.23438,41.5156 C2.99479,41.5156 2.71875,41.5052 2.40625,41.4844 L2.40625,43.6875 C2.40625,44.125 2.47656,44.4115 2.61719,44.5469 C2.75781,44.6823 3.0625,44.7552 3.53125,44.7656 L3.53125,45 L0.1875,45 L0.1875,44.7656 C0.635417,44.7344 0.914063,44.651 1.02344,44.5156 C1.13281,44.3802 1.1875,44.0625 1.1875,43.5625 L1.1875,38.375 C1.1875,37.9375 1.13021,37.6589 1.01563,37.5391 C0.901042,37.4193 0.625,37.3333 0.1875,37.2813 L0.1875,37.0625 L3.34375,37.0625 C3.70833,37.0625 4.05729,37.0964 4.39063,37.1641 C4.72396,37.2318 5.05729,37.3411 5.39063,37.4922 C5.72396,37.6432 5.98958,37.8672 6.1875,38.1641 C6.38542,38.4609 6.48438,38.8177 6.48438,39.2344 M2.40625,37.9219 L2.40625,41.0313 C2.6875,41.0521 2.91667,41.0625 3.09375,41.0625 C4.48958,41.0625 5.1875,40.4792 5.1875,39.3125 C5.1875,38.6979 4.99479,38.2448 4.60938,37.9531 C4.22396,37.6615 3.625,37.5156 2.8125,37.5156 C2.65625,37.5156 2.54948,37.5443 2.49219,37.6016 C2.4349,37.6589 2.40625,37.7656 2.40625,37.9219 M7.65625,40.2813 C7.47917,40.2813 7.30729,40.2969 7.14063,40.3281 L7.14063,40.1406 C7.70313,39.9844 8.32292,39.7656 9,39.4844 L9.04688,39.5156 L9.04688,43.7813 C9.04688,44.2083 9.09896,44.4792 9.20313,44.5938 C9.30729,44.7083 9.55208,44.7813 9.9375,44.8125 L9.9375,45 L7.09375,45 L7.09375,44.8125 C7.51042,44.7917 7.77344,44.7214 7.88281,44.6016 C7.99219,44.4818 8.04688,44.2083 8.04688,43.7813 L8.04688,41 C8.04688,40.7292 8.01563,40.5417 7.95313,40.4375 C7.89063,40.3333 7.79167,40.2813 7.65625,40.2813 M8.4375,36.8125 C8.61458,36.8125 8.76302,36.8724 8.88281,36.9922 C9.0026,37.112 9.0625,37.2552 9.0625,37.4219 C9.0625,37.599 9.0026,37.7448 8.88281,37.8594 C8.76302,37.974 8.61458,38.0313 8.4375,38.0313 C8.27083,38.0313 8.13021,37.9714 8.01563,37.8516 C7.90104,37.7318 7.84375,37.5885 7.84375,37.4219 C7.84375,37.2552 7.90365,37.112 8.02344,36.9922 C8.14323,36.8724 8.28125,36.8125 8.4375,36.8125 M10.5313,43.8125 C10.5313,43.6667 10.5469,43.5339 10.5781,43.4141 C10.6094,43.2943 10.6667,43.1797 10.75,43.0703 C10.8333,42.9609 10.9089,42.862 10.9766,42.7734 C11.0443,42.6849 11.151,42.5964 11.2969,42.5078 C11.4427,42.4193 11.5651,42.3438 11.6641,42.2813 C11.763,42.2188 11.9089,42.1458 12.1016,42.0625 C12.2943,41.9792 12.4427,41.9167 12.5469,41.875 C12.651,41.8333 12.8151,41.7682 13.0391,41.6797 C13.263,41.5911 13.4271,41.526 13.5313,41.4844 L13.5313,40.7656 C13.5313,40.099 13.2292,39.7656 12.625,39.7656 C12.3854,39.7656 12.1797,39.8255 12.0078,39.9453 C11.8359,40.0651 11.75,40.2031 11.75,40.3594 C11.75,40.4219 11.7604,40.5104 11.7813,40.625 C11.8021,40.7396 11.8125,40.8125 11.8125,40.8438 C11.8125,40.9792 11.7604,41.0964 11.6563,41.1953 C11.5521,41.2943 11.4271,41.3438 11.2813,41.3438 C11.1458,41.3438 11.026,41.2917 10.9219,41.1875 C10.8177,41.0833 10.7656,40.9635 10.7656,40.8281 C10.7656,40.4531 10.9583,40.1354 11.3438,39.875 C11.7292,39.6146 12.2083,39.4844 12.7813,39.4844 C13.4375,39.4844 13.888,39.6406 14.1328,39.9531 C14.3776,40.2656 14.5,40.7448 14.5,41.3906 L14.5,43.7188 C14.5,43.9792 14.526,44.1589 14.5781,44.2578 C14.6302,44.3568 14.724,44.4063 14.8594,44.4063 C15.026,44.4063 15.2031,44.3333 15.3906,44.1875 L15.3906,44.5 C15.1823,44.7396 15,44.9036 14.8438,44.9922 C14.6875,45.0807 14.5104,45.125 14.3125,45.125 C14.0625,45.125 13.8802,45.0547 13.7656,44.9141 C13.651,44.7734 13.5781,44.5417 13.5469,44.2188 C12.8594,44.8229 12.276,45.125 11.7969,45.125 C11.4219,45.125 11.1172,45.0026 10.8828,44.7578 C10.6484,44.513 10.5313,44.1979 10.5313,43.8125 M13.5313,43.5 L13.5313,41.7813 C12.8125,42.0417 12.3099,42.2943 12.0234,42.5391 C11.737,42.7839 11.5938,43.0833 11.5938,43.4375 C11.5938,43.7604 11.6719,44.0026 11.8281,44.1641 C11.9844,44.3255 12.1563,44.4063 12.3438,44.4063 C12.6146,44.4063 12.9063,44.3125 13.2188,44.125 C13.3438,44.0521 13.4271,43.9766 13.4688,43.8984 C13.5104,43.8203 13.5313,43.6875 13.5313,43.5 M15.5781,40.2188 L15.5781,40.0156 C16.1615,39.8385 16.7135,39.6615 17.2344,39.4844 L17.3125,39.5 L17.3125,40.4375 C17.7188,40.0625 18.0391,39.8099 18.2734,39.6797 C18.5078,39.5495 18.7656,39.4844 19.0469,39.4844 C19.4844,39.4844 19.8307,39.6406 20.0859,39.9531 C20.3411,40.2656 20.4688,40.7031 20.4688,41.2656 L20.4688,44.0313 C20.4688,44.3229 20.5156,44.5182 20.6094,44.6172 C20.7031,44.7161 20.901,44.7813 21.2031,44.8125 L21.2031,45 L18.7031,45 L18.7031,44.8125 C19.0052,44.7917 19.2057,44.7135 19.3047,44.5781 C19.4036,44.4427 19.4531,44.1875 19.4531,43.8125 L19.4531,41.2969 C19.4531,40.5156 19.1615,40.125 18.5781,40.125 C18.3802,40.125 18.1979,40.1719 18.0313,40.2656 C17.8646,40.3594 17.6354,40.5417 17.3438,40.8125 L17.3438,44.1875 C17.3438,44.4063 17.401,44.5599 17.5156,44.6484 C17.6302,44.737 17.8385,44.7917 18.1406,44.8125 L18.1406,45 L15.5938,45 L15.5938,44.8125 C15.8958,44.7917 16.0964,44.724 16.1953,44.6094 C16.2943,44.4948 16.3438,44.2656 16.3438,43.9219 L16.3438,40.9375 C16.3438,40.6354 16.3125,40.4323 16.25,40.3281 C16.1875,40.224 16.0677,40.1719 15.8906,40.1719 C15.7448,40.1719 15.6406,40.1875 15.5781,40.2188 M24.2656,39.4844 C25.0365,39.4844 25.6693,39.7396 26.1641,40.25 C26.6589,40.7604 26.9063,41.4063 26.9063,42.1875 C26.9063,43.0208 26.6484,43.7188 26.1328,44.2813 C25.6172,44.8438 24.9844,45.125 24.2344,45.125 C23.4844,45.125 22.8594,44.8542 22.3594,44.3125 C21.8594,43.7708 21.6094,43.099 21.6094,42.2969 C21.6094,41.4635 21.8568,40.7865 22.3516,40.2656 C22.8464,39.7448 23.4844,39.4844 24.2656,39.4844 M22.6875,41.7031 C22.6875,42.5573 22.8438,43.2813 23.1563,43.875 C23.4688,44.4688 23.8802,44.7656 24.3906,44.7656 C24.8281,44.7656 25.1771,44.5755 25.4375,44.1953 C25.6979,43.8151 25.8281,43.2865 25.8281,42.6094 C25.8281,41.7969 25.6667,41.1328 25.3438,40.6172 C25.0208,40.1016 24.6094,39.8438 24.1094,39.8438 C23.6823,39.8438 23.3385,40.013 23.0781,40.3516 C22.8177,40.6901 22.6875,41.1406 22.6875,41.7031 M28.9063,45.0313 C28.9063,45.0313 28.875,45.0365 28.8125,45.0469 C28.7396,45.0677 28.6615,45.0781 28.5781,45.0781 C28.3698,45.0781 28.2005,45.0234 28.0703,44.9141 C27.9401,44.8047 27.875,44.651 27.875,44.4531 C27.875,44.2552 27.9401,44.0938 28.0703,43.9688 C28.2005,43.8438 28.3698,43.7813 28.5781,43.7813 C28.849,43.7813 29.0781,43.8828 29.2656,44.0859 C29.4531,44.2891 29.5469,44.5417 29.5469,44.8438 C29.5469,45.2083 29.4219,45.5573 29.1719,45.8906 C28.9219,46.224 28.599,46.4896 28.2031,46.6875 L28.0938,46.4688 C28.75,46.0208 29.0781,45.5938 29.0781,45.1875 C29.0781,45.0833 29.0208,45.0313 28.9063,45.0313 M36.2188,37.5938 L35.5781,37.5938 C34.9115,37.5938 34.4635,37.6823 34.2344,37.8594 C34.0052,38.0365 33.8177,38.4479 33.6719,39.0938 L33.3906,39.0938 L33.4531,37.0625 L40.2188,37.0625 L40.2969,39.0938 L40,39.0938 C39.8646,38.4479 39.6823,38.0365 39.4531,37.8594 C39.224,37.6823 38.7708,37.5938 38.0938,37.5938 L37.4531,37.5938 L37.4531,43.7031 C37.4531,44.1406 37.5208,44.4219 37.6563,44.5469 C37.7917,44.6719 38.1042,44.7448 38.5938,44.7656 L38.5938,45 L35.0938,45 L35.0938,44.7656 C35.5938,44.7344 35.9063,44.6536 36.0313,44.5234 C36.1563,44.3932 36.2188,44.0729 36.2188,43.5625 L36.2188,37.5938 M44.0781,40.6563 C43.9635,40.6563 43.8177,40.5807 43.6406,40.4297 C43.4635,40.2786 43.3438,40.2031 43.2813,40.2031 C43.125,40.2031 42.9479,40.3203 42.75,40.5547 C42.5521,40.7891 42.4531,41 42.4531,41.1875 L42.4531,43.9063 C42.4531,44.2604 42.5208,44.4974 42.6563,44.6172 C42.7917,44.737 43.0625,44.8021 43.4688,44.8125 L43.4688,45 L40.5938,45 L40.5938,44.8125 C40.9792,44.75 41.2161,44.6719 41.3047,44.5781 C41.3932,44.4844 41.4375,44.2865 41.4375,43.9844 L41.4375,40.9688 C41.4375,40.6979 41.4089,40.5078 41.3516,40.3984 C41.2943,40.2891 41.1875,40.2344 41.0313,40.2344 C40.9063,40.2344 40.7656,40.25 40.6094,40.2813 L40.6094,40.0938 C41.2552,39.8958 41.849,39.6927 42.3906,39.4844 L42.4531,39.5 L42.4531,40.5781 C42.7448,40.1615 42.9948,39.875 43.2031,39.7188 C43.4115,39.5625 43.6406,39.4844 43.8906,39.4844 C44.099,39.4844 44.2604,39.5391 44.375,39.6484 C44.4896,39.7578 44.5469,39.9167 44.5469,40.125 C44.5469,40.2917 44.5052,40.4219 44.4219,40.5156 C44.3385,40.6094 44.224,40.6563 44.0781,40.6563 M44.8906,43.8125 C44.8906,43.6667 44.9063,43.5339 44.9375,43.4141 C44.9688,43.2943 45.026,43.1797 45.1094,43.0703 C45.1927,42.9609 45.2682,42.862 45.3359,42.7734 C45.4036,42.6849 45.5104,42.5964 45.6563,42.5078 C45.8021,42.4193 45.9245,42.3438 46.0234,42.2813 C46.1224,42.2188 46.2682,42.1458 46.4609,42.0625 C46.6536,41.9792 46.8021,41.9167 46.9063,41.875 C47.0104,41.8333 47.1745,41.7682 47.3984,41.6797 C47.6224,41.5911 47.7865,41.526 47.8906,41.4844 L47.8906,40.7656 C47.8906,40.099 47.5885,39.7656 46.9844,39.7656 C46.7448,39.7656 46.5391,39.8255 46.3672,39.9453 C46.1953,40.0651 46.1094,40.2031 46.1094,40.3594 C46.1094,40.4219 46.1198,40.5104 46.1406,40.625 C46.1615,40.7396 46.1719,40.8125 46.1719,40.8438 C46.1719,40.9792 46.1198,41.0964 46.0156,41.1953 C45.9115,41.2943 45.7865,41.3438 45.6406,41.3438 C45.5052,41.3438 45.3854,41.2917 45.2813,41.1875 C45.1771,41.0833 45.125,40.9635 45.125,40.8281 C45.125,40.4531 45.3177,40.1354 45.7031,39.875 C46.0885,39.6146 46.5677,39.4844 47.1406,39.4844 C47.7969,39.4844 48.2474,39.6406 48.4922,39.9531 C48.737,40.2656 48.8594,40.7448 48.8594,41.3906 L48.8594,43.7188 C48.8594,43.9792 48.8854,44.1589 48.9375,44.2578 C48.9896,44.3568 49.0833,44.4063 49.2188,44.4063 C49.3854,44.4063 49.5625,44.3333 49.75,44.1875 L49.75,44.5 C49.5417,44.7396 49.3594,44.9036 49.2031,44.9922 C49.0469,45.0807 48.8698,45.125 48.6719,45.125 C48.4219,45.125 48.2396,45.0547 48.125,44.9141 C48.0104,44.7734 47.9375,44.5417 47.9063,44.2188 C47.2188,44.8229 46.6354,45.125 46.1563,45.125 C45.7813,45.125 45.4766,45.0026 45.2422,44.7578 C45.0078,44.513 44.8906,44.1979 44.8906,43.8125 M47.8906,43.5 L47.8906,41.7813 C47.1719,42.0417 46.6693,42.2943 46.3828,42.5391 C46.0964,42.7839 45.9531,43.0833 45.9531,43.4375 C45.9531,43.7604 46.0313,44.0026 46.1875,44.1641 C46.3438,44.3255 46.5156,44.4063 46.7031,44.4063 C46.974,44.4063 47.2656,44.3125 47.5781,44.125 C47.7031,44.0521 47.7865,43.9766 47.8281,43.8984 C47.8698,43.8203 47.8906,43.6875 47.8906,43.5 M50.1094,42.4375 C50.1094,41.5521 50.3724,40.8385 50.8984,40.2969 C51.4245,39.7552 52.0365,39.4844 52.7344,39.4844 C53.2448,39.4844 53.6797,39.6068 54.0391,39.8516 C54.3984,40.0964 54.5781,40.3854 54.5781,40.7188 C54.5781,40.8542 54.5234,40.9714 54.4141,41.0703 C54.3047,41.1693 54.1719,41.2188 54.0156,41.2188 C53.7448,41.2188 53.5573,41.0365 53.4531,40.6719 L53.375,40.4063 C53.3125,40.1875 53.2318,40.0391 53.1328,39.9609 C53.0339,39.8828 52.8802,39.8438 52.6719,39.8438 C52.1823,39.8438 51.7865,40.0365 51.4844,40.4219 C51.1823,40.8073 51.0313,41.3073 51.0313,41.9219 C51.0313,42.599 51.2057,43.1563 51.5547,43.5938 C51.9036,44.0313 52.349,44.25 52.8906,44.25 C53.2344,44.25 53.5313,44.1667 53.7813,44 C54.0313,43.8333 54.2969,43.5417 54.5781,43.125 L54.75,43.2344 C54.6771,43.3906 54.6094,43.5208 54.5469,43.625 C54.4844,43.7292 54.375,43.8854 54.2188,44.0938 C54.0625,44.3021 53.9089,44.4714 53.7578,44.6016 C53.6068,44.7318 53.4063,44.8516 53.1563,44.9609 C52.9063,45.0703 52.651,45.125 52.3906,45.125 C51.724,45.125 51.1771,44.875 50.75,44.375 C50.3229,43.875 50.1094,43.2292 50.1094,42.4375 M55.25,37.5313 L55.25,37.3438 C55.9271,37.1667 56.5469,36.9896 57.1094,36.8125 L57.1563,36.8281 L57.1563,41.875 L58.7969,40.4063 C58.9844,40.25 59.0781,40.1146 59.0781,40 C59.0781,39.9167 59.0339,39.8594 58.9453,39.8281 C58.8568,39.7969 58.6979,39.776 58.4688,39.7656 L58.4688,39.6094 L60.9219,39.6094 L60.9219,39.7813 C60.7344,39.7813 60.5859,39.7917 60.4766,39.8125 C60.3672,39.8333 60.2135,39.888 60.0156,39.9766 C59.8177,40.0651 59.5859,40.2161 59.3203,40.4297 C59.0547,40.6432 58.724,40.9323 58.3281,41.2969 L57.9844,41.625 L59.8125,43.9375 C60.0625,44.25 60.2943,44.4714 60.5078,44.6016 C60.7214,44.7318 60.9583,44.8021 61.2188,44.8125 L61.2188,45 L58.6094,45 L58.6094,44.8125 C58.9219,44.8125 59.0781,44.7552 59.0781,44.6406 C59.0781,44.6094 59.0677,44.5703 59.0469,44.5234 C59.026,44.4766 58.9896,44.4245 58.9375,44.3672 C58.8854,44.3099 58.849,44.2656 58.8281,44.2344 L57.1563,41.9844 L57.1563,44.0469 C57.1563,44.3281 57.2005,44.5104 57.2891,44.5938 C57.3776,44.6771 57.6302,44.75 58.0469,44.8125 L58.0469,45 L55.25,45 L55.25,44.8125 C55.6771,44.75 55.9323,44.6797 56.0156,44.6016 C56.099,44.5234 56.1406,44.3281 56.1406,44.0156 L56.1406,38.2344 C56.1406,37.9427 56.1042,37.7474 56.0313,37.6484 C55.9583,37.5495 55.8229,37.5 55.625,37.5 C55.5104,37.5 55.3854,37.5104 55.25,37.5313 M69.2266,44.0156 C68.7318,44.7865 68.0781,45.1719 67.2656,45.1719 C66.4531,45.1719 65.7969,44.7786 65.2969,43.9922 C64.7969,43.2057 64.5469,42.1979 64.5469,40.9688 C64.5469,39.8125 64.7969,38.8438 65.2969,38.0625 C65.7969,37.2813 66.4688,36.8906 67.3125,36.8906 C68.0938,36.8906 68.7318,37.2734 69.2266,38.0391 C69.7214,38.8047 69.9688,39.8073 69.9688,41.0469 C69.9688,42.2552 69.7214,43.2448 69.2266,44.0156 M67.2813,37.2031 C66.2292,37.2031 65.7031,38.4948 65.7031,41.0781 C65.7031,43.599 66.224,44.8594 67.2656,44.8594 C68.3073,44.8594 68.8281,43.5938 68.8281,41.0625 C68.8281,39.8125 68.6953,38.8568 68.4297,38.1953 C68.1641,37.5339 67.7813,37.2031 67.2813,37.2031"/>
<polyline class="BarLine" fill="none" stroke="#000000" stroke-width="0.80" stroke-linejoin="bevel" points="75.6656,31 75.6656,103.5"/>
<polyline class="BarLine" fill="none" stroke="#000000" stroke-width="0.80" stroke-linejoin="bevel" points="538.183,83.5 538.183,103.5"/>
<polyline class="BarLine" fill="none" stroke="#000000" stroke-width="0.80" stroke-linejoin="bevel" points="538.183,31 538.183,51"/>
<polyline class="BarLine" fill="none" stroke="#000000" stroke-width="0.80" stroke-linejoin="bevel" points="433.484,83.5 433.484,103.5"/>
<polyline class="BarLine" fill="none" stroke="#000000" stroke-width="0.80" stroke-linejoin="bevel" points="433.484,31 433.484,51"/>
<polyline class="BarLine" fill="none" stroke="#000000" stroke-width="0.80" stroke-linejoin="bevel" points="314.15,83.5 314.15,103.5"/>
<polyline class="BarLine" fill="none" stroke="#000000" stroke-width="0.80" stroke-linejoin="bevel" points="314.15,31 314.15,51"/>
<polyline class="BarLine" fill="none" stroke="#000000" stroke-width="0.80" stroke-linejoin="bevel" points="208.202,83.5 208.202,103.5"/>
<polyline class="BarLine" fill="none" stroke="#000000" stroke-width="0.80" stroke-linejoin="bevel" points="208.202,31 208.202,51"/>
<path class="Accidental" d="M437.406,102.672 L437.406,104.219 C437.406,104.771 437.432,105.208 437.484,105.531 C437.911,105.167 438.219,104.896 438.406,104.719 C438.614,104.51 438.823,104.221 439.031,103.852 C439.239,103.482 439.344,103.115 439.344,102.75 C439.344,102.385 439.266,102.073 439.109,101.813 C438.953,101.552 438.745,101.422 438.484,101.422 C438.172,101.422 437.911,101.542 437.703,101.781 C437.505,102.042 437.406,102.339 437.406,102.672 M436.578,106.25 L436.328,94.3594 C436.516,94.2552 436.7,94.2031 436.883,94.2031 C437.065,94.2031 437.245,94.2552 437.422,94.3594 L437.266,101.25 C437.797,100.792 438.411,100.563 439.109,100.563 C439.609,100.563 440.029,100.771 440.367,101.188 C440.706,101.604 440.875,102.083 440.875,102.625 C440.875,102.958 440.766,103.318 440.547,103.703 C440.338,104.047 440.12,104.318 439.891,104.516 C439.755,104.62 439.422,104.88 438.891,105.297 C438.734,105.411 438.549,105.547 438.336,105.703 C438.122,105.859 437.989,105.958 437.937,106 C437.844,106.052 437.755,106.156 437.672,106.313 C437.588,106.448 437.484,106.557 437.359,106.641 C437.276,106.724 437.169,106.766 437.039,106.766 C436.909,106.766 436.802,106.719 436.719,106.625 C436.625,106.531 436.578,106.406 436.578,106.25"/>
<path class="Accidental" d="M373.15,91 C373.317,90.9063 373.486,90.8594 373.658,90.8594 C373.83,90.8594 373.999,90.9063 374.166,91 L374.103,94.6563 L376.244,94.2656 L376.322,94.2656 C376.551,94.2656 376.666,94.375 376.666,94.5938 L376.806,106 C376.639,106.094 376.47,106.141 376.298,106.141 C376.126,106.141 375.957,106.094 375.791,106 L375.853,102.344 L373.744,102.734 L373.666,102.734 C373.426,102.734 373.306,102.625 373.306,102.406 L373.15,91 M375.869,100.391 L375.931,96.25 L374.087,96.6094 L374.025,100.75 L375.869,100.391 "/>
<path class="Accidental" d="M347.989,104.734 C347.989,104.984 347.867,105.109 347.622,105.109 C347.377,105.109 347.255,104.984 347.255,104.734 L347.255,101.844 L345.598,102.469 L345.598,105.625 C345.598,105.875 345.473,106 345.223,106 C344.973,106 344.848,105.875 344.848,105.625 L344.848,102.719 L344.223,102.953 C344.213,102.964 344.161,102.969 344.067,102.969 C343.963,102.969 343.872,102.93 343.794,102.852 C343.716,102.773 343.676,102.682 343.676,102.578 L343.676,101.375 C343.676,101.177 343.76,101.052 343.926,101 L344.848,100.688 L344.848,97.4844 L344.223,97.7031 C344.213,97.7135 344.161,97.7188 344.067,97.7188 C343.963,97.7188 343.872,97.6797 343.794,97.6016 C343.716,97.5234 343.676,97.4323 343.676,97.3281 L343.676,96.1094 C343.676,95.9323 343.76,95.8177 343.926,95.7656 L344.848,95.4063 L344.848,92.2656 C344.848,92.0156 344.973,91.8906 345.223,91.8906 C345.473,91.8906 345.598,92.0156 345.598,92.2656 L345.598,95.1563 L347.255,94.5313 L347.255,91.375 C347.255,91.125 347.377,91 347.622,91 C347.867,91 347.989,91.125 347.989,91.375 L347.989,94.2813 L348.645,94.0469 C348.656,94.0365 348.697,94.0313 348.77,94.0313 C348.864,94.0313 348.963,94.0677 349.067,94.1406 C349.15,94.224 349.192,94.3177 349.192,94.4219 L349.192,95.625 C349.192,95.8125 349.098,95.9375 348.911,96 L347.989,96.3125 L347.989,99.5156 L348.645,99.2969 C348.656,99.2865 348.697,99.2813 348.77,99.2813 C348.864,99.2813 348.963,99.3229 349.067,99.4063 C349.15,99.4792 349.192,99.5677 349.192,99.6719 L349.192,100.891 C349.192,101.057 349.098,101.172 348.911,101.234 L347.989,101.594 L347.989,104.734 M347.255,96.6094 L345.598,97.1875 L345.598,100.391 L347.255,99.8125 L347.255,96.6094 "/>
<path class="Accidental" d="M318.072,92.6719 L318.072,94.2188 C318.072,94.7708 318.098,95.2083 318.15,95.5313 C318.577,95.1667 318.884,94.8958 319.072,94.7188 C319.28,94.5104 319.488,94.2214 319.697,93.8516 C319.905,93.4818 320.009,93.1146 320.009,92.75 C320.009,92.3854 319.931,92.0729 319.775,91.8125 C319.619,91.5521 319.41,91.4219 319.15,91.4219 C318.837,91.4219 318.577,91.5417 318.369,91.7813 C318.171,92.0417 318.072,92.3385 318.072,92.6719 M317.244,96.25 L316.994,84.3594 C317.181,84.2552 317.366,84.2031 317.548,84.2031 C317.731,84.2031 317.91,84.2552 318.087,84.3594 L317.931,91.25 C318.462,90.7917 319.077,90.5625 319.775,90.5625 C320.275,90.5625 320.694,90.7708 321.033,91.1875 C321.371,91.6042 321.541,92.0833 321.541,92.625 C321.541,92.9583 321.431,93.3177 321.212,93.7031 C321.004,94.0469 320.785,94.3177 320.556,94.5156 C320.421,94.6198 320.087,94.8802 319.556,95.2969 C319.4,95.4115 319.215,95.5469 319.001,95.7031 C318.788,95.8594 318.655,95.9583 318.603,96 C318.509,96.0521 318.421,96.1563 318.337,96.3125 C318.254,96.4479 318.15,96.5573 318.025,96.6406 C317.942,96.724 317.835,96.7656 317.705,96.7656 C317.574,96.7656 317.468,96.7188 317.384,96.625 C317.291,96.5313 317.244,96.4063 317.244,96.25"/>
<polyline class="LedgerLine" fill="none" stroke="#000000" stroke-width="0.80" stroke-linecap="square" stroke-linejoin="bevel" points="488.401,108.5 497.983,108.5"/>
<polyline class="LedgerLine" fill="none" stroke="#000000" stroke-width="0.80" stroke-linecap="square" stroke-linejoin="bevel" points="112.153,56 121.736,56"/>
<polyline class="Stem" fill="none" stroke="#000000" stroke-width="0.65" stroke-linecap="round" stroke-linejoin="bevel" points="496.158,107.561 496.158,91"/>
<polyline class="Stem" fill="none" stroke="#000000" stroke-width="0.65" stroke-linecap="round" stroke-linejoin="bevel" points="472.217,105.061 472.217,88.5"/>
<polyline class="Stem" fill="none" stroke="#000000" stroke-width="0.65" stroke-linecap="round" stroke-linejoin="bevel" points="448.276,102.561 448.276,86"/>
<polyline class="Stem" fill="none" stroke="#000000" stroke-width="0.65" stroke-linecap="round" stroke-linejoin="bevel" points="411.742,100.061 411.742,83.5"/>
<polyline class="Stem" fill="none" stroke="#000000" stroke-width="0.65" stroke-linecap="round" stroke-linejoin="bevel" points="384.142,97.5609 384.142,81.625"/>
<polyline class="Stem" fill="none" stroke="#000000" stroke-width="0.65" stroke-linecap="round" stroke-linejoin="bevel" points="356.542,97.5609 356.542,81.625"/>
<polyline class="Stem" fill="none" stroke="#000000" stroke-width="0.65" stroke-linecap="round" stroke-linejoin="bevel" points="323.009,94.4391 323.009,109.125"/>
<polyline class="Stem" fill="none" stroke="#000000" stroke-width="0.65" stroke-linecap="round" stroke-linejoin="bevel" points="289.288,39.4391 289.288,54.75"/>
<polyline class="Stem" fill="none" stroke="#000000" stroke-width="0.65" stroke-linecap="round" stroke-linejoin="bevel" points="264.501,41.9391 264.501,56.625"/>
<polyline class="Stem" fill="none" stroke="#000000" stroke-width="0.65" stroke-linecap="round" stroke-linejoin="bevel" points="245.646,42.5609 245.646,27.25"/>
<polyline class="Stem" fill="none" stroke="#000000" stroke-width="0.65" stroke-linecap="round" stroke-linejoin="bevel" points="220.859,45.0609 220.859,29.125"/>
<polyline class="Stem" fill="none" stroke="#000000" stroke-width="0.65" stroke-linecap="round" stroke-linejoin="bevel" points="190.522,47.5609 190.522,31"/>
<polyline class="Stem" fill="none" stroke="#000000" stroke-width="0.65" stroke-linecap="round" stroke-linejoin="bevel" points="166.985,50.0609 166.985,33.5"/>
<polyline class="Stem" fill="none" stroke="#000000" stroke-width="0.65" stroke-linecap="round" stroke-linejoin="bevel" points="143.448,52.5609 143.448,36"/>
<polyline class="Stem" fill="none" stroke="#000000" stroke-width="0.65" stroke-linecap="round" stroke-linejoin="bevel" points="119.911,55.0609 119.911,38.5"/>
<path class="Note" d="M494.291,105.75 C494.916,105.75 495.448,105.911 495.885,106.234 C496.281,106.589 496.479,107.031 496.479,107.563 C496.479,108.458 496.02,109.297 495.104,110.078 C494.166,110.859 493.161,111.25 492.088,111.25 C491.463,111.25 490.937,111.089 490.51,110.766 C490.104,110.411 489.901,109.969 489.901,109.438 C489.901,108.542 490.369,107.703 491.307,106.922 C492.224,106.141 493.218,105.75 494.291,105.75"/>
<path class="Note" d="M470.35,103.25 C470.975,103.25 471.507,103.411 471.944,103.734 C472.34,104.089 472.538,104.531 472.538,105.063 C472.538,105.958 472.079,106.797 471.163,107.578 C470.225,108.359 469.22,108.75 468.147,108.75 C467.522,108.75 466.996,108.589 466.569,108.266 C466.163,107.911 465.96,107.469 465.96,106.938 C465.96,106.042 466.428,105.203 467.366,104.422 C468.283,103.641 469.277,103.25 470.35,103.25"/>
<path class="Note" d="M446.409,100.75 C447.034,100.75 447.566,100.911 448.003,101.234 C448.399,101.589 448.597,102.031 448.597,102.563 C448.597,103.458 448.138,104.297 447.222,105.078 C446.284,105.859 445.279,106.25 444.206,106.25 C443.581,106.25 443.055,106.089 442.628,105.766 C442.222,105.411 442.019,104.969 442.019,104.438 C442.019,103.542 442.487,102.703 443.425,101.922 C444.342,101.141 445.336,100.75 446.409,100.75"/>
<path class="Note" d="M409.875,98.25 C410.5,98.25 411.031,98.4115 411.469,98.7344 C411.864,99.0885 412.062,99.5313 412.062,100.063 C412.062,100.958 411.604,101.797 410.687,102.578 C409.75,103.359 408.745,103.75 407.672,103.75 C407.047,103.75 406.521,103.589 406.094,103.266 C405.687,102.911 405.484,102.469 405.484,101.938 C405.484,101.042 405.953,100.203 406.891,99.4219 C407.807,98.6406 408.802,98.25 409.875,98.25"/>
<path class="Note" d="M382.275,95.75 C382.9,95.75 383.431,95.9115 383.869,96.2344 C384.264,96.5885 384.462,97.0313 384.462,97.5625 C384.462,98.4583 384.004,99.2969 383.087,100.078 C382.15,100.859 381.145,101.25 380.072,101.25 C379.447,101.25 378.921,101.089 378.494,100.766 C378.087,100.411 377.884,99.9688 377.884,99.4375 C377.884,98.5417 378.353,97.7031 379.291,96.9219 C380.207,96.1406 381.202,95.75 382.275,95.75"/>
<path class="Note" d="M354.675,95.75 C355.3,95.75 355.831,95.9115 356.269,96.2344 C356.665,96.5885 356.862,97.0313 356.862,97.5625 C356.862,98.4583 356.404,99.2969 355.487,100.078 C354.55,100.859 353.545,101.25 352.472,101.25 C351.847,101.25 351.321,101.089 350.894,100.766 C350.487,100.411 350.284,99.9688 350.284,99.4375 C350.284,98.5417 350.753,97.7031 351.691,96.9219 C352.607,96.1406 353.602,95.75 354.675,95.75"/>
<path class="Note" d="M327.075,90.75 C327.7,90.75 328.231,90.9115 328.669,91.2344 C329.065,91.5885 329.262,92.0313 329.262,92.5625 C329.262,93.4583 328.804,94.2969 327.887,95.0781 C326.95,95.8594 325.945,96.25 324.872,96.25 C324.247,96.25 323.721,96.0885 323.294,95.7656 C322.887,95.4115 322.684,94.9688 322.684,94.4375 C322.684,93.5417 323.153,92.7031 324.091,91.9219 C325.007,91.1406 326.002,90.75 327.075,90.75"/>
<path class="Note" d="M293.353,35.75 C293.978,35.75 294.51,35.9115 294.947,36.2344 C295.343,36.5885 295.541,37.0313 295.541,37.5625 C295.541,38.4583 295.083,39.2969 294.166,40.0781 C293.228,40.8594 292.223,41.25 291.15,41.25 C290.525,41.25 289.999,41.0885 289.572,40.7656 C289.166,40.4115 288.963,39.9688 288.963,39.4375 C288.963,38.5417 289.432,37.7031 290.369,36.9219 C291.286,36.1406 292.281,35.75 293.353,35.75"/>
<path class="Note" d="M268.566,38.25 C269.191,38.25 269.723,38.4115 270.16,38.7344 C270.556,39.0885 270.754,39.5313 270.754,40.0625 C270.754,40.9583 270.296,41.7969 269.379,42.5781 C268.441,43.3594 267.436,43.75 266.363,43.75 C265.738,43.75 265.212,43.5885 264.785,43.2656 C264.379,42.9115 264.176,42.4688 264.176,41.9375 C264.176,41.0417 264.644,40.2031 265.582,39.4219 C266.499,38.6406 267.493,38.25 268.566,38.25"/>
<path class="Note" d="M243.779,40.75 C244.404,40.75 244.936,40.9115 245.373,41.2344 C245.769,41.5885 245.967,42.0313 245.967,42.5625 C245.967,43.4583 245.508,44.2969 244.592,45.0781 C243.654,45.8594 242.649,46.25 241.576,46.25 C240.951,46.25 240.425,46.0885 239.998,45.7656 C239.592,45.4115 239.389,44.9688 239.389,44.4375 C239.389,43.5417 239.857,42.7031 240.795,41.9219 C241.712,41.1406 242.706,40.75 243.779,40.75"/>
<path class="Note" d="M218.992,43.25 C219.617,43.25 220.148,43.4115 220.586,43.7344 C220.982,44.0885 221.18,44.5313 221.18,45.0625 C221.18,45.9583 220.721,46.7969 219.805,47.5781 C218.867,48.3594 217.862,48.75 216.789,48.75 C216.164,48.75 215.638,48.5885 215.211,48.2656 C214.805,47.9115 214.602,47.4688 214.602,46.9375 C214.602,46.0417 215.07,45.2031 216.008,44.4219 C216.924,43.6406 217.919,43.25 218.992,43.25"/>
<path class="Note" d="M188.655,45.75 C189.28,45.75 189.811,45.9115 190.249,46.2344 C190.645,46.5885 190.843,47.0313 190.843,47.5625 C190.843,48.4583 190.384,49.2969 189.468,50.0781 C188.53,50.8594 187.525,51.25 186.452,51.25 C185.827,51.25 185.301,51.0885 184.874,50.7656 C184.468,50.4115 184.264,49.9688 184.264,49.4375 C184.264,48.5417 184.733,47.7031 185.671,46.9219 C186.587,46.1406 187.582,45.75 188.655,45.75"/>
<path class="Note" d="M165.118,48.25 C165.743,48.25 166.274,48.4115 166.712,48.7344 C167.108,49.0885 167.305,49.5313 167.305,50.0625 C167.305,50.9583 166.847,51.7969 165.93,52.5781 C164.993,53.3594 163.988,53.75 162.915,53.75 C162.29,53.75 161.764,53.5885 161.337,53.2656 C160.93,52.9115 160.727,52.4688 160.727,51.9375 C160.727,51.0417 161.196,50.2031 162.134,49.4219 C163.05,48.6406 164.045,48.25 165.118,48.25"/>
<path class="Note" d="M141.581,50.75 C142.206,50.75 142.737,50.9115 143.175,51.2344 C143.57,51.5885 143.768,52.0313 143.768,52.5625 C143.768,53.4583 143.31,54.2969 142.393,55.0781 C141.456,55.8594 140.451,56.25 139.378,56.25 C138.753,56.25 138.227,56.0885 137.8,55.7656 C137.393,55.4115 137.19,54.9688 137.19,54.4375 C137.19,53.5417 137.659,52.7031 138.596,51.9219 C139.513,51.1406 140.508,50.75 141.581,50.75"/>
<path class="Note" d="M118.044,53.25 C118.669,53.25 119.2,53.4115 119.637,53.7344 C120.033,54.0885 120.231,54.5313 120.231,55.0625 C120.231,55.9583 119.773,56.7969 118.856,57.5781 C117.919,58.3594 116.914,58.75 115.841,58.75 C115.216,58.75 114.69,58.5885 114.262,58.2656 C113.856,57.9115 113.653,57.4688 113.653,56.9375 C113.653,56.0417 114.122,55.2031 115.059,54.4219 C115.976,53.6406 116.971,53.25 118.044,53.25"/>
<path class="Clef" d="M86.6094,93.375 C86.6094,93.375 86.651,93.375 86.7344,93.375 C86.7865,93.3646 86.8281,93.3594 86.8594,93.3594 C88.3177,93.3594 89.5156,93.875 90.4531,94.9063 C91.3906,95.9167 91.8594,97.099 91.8594,98.4531 C91.8594,100.141 91.1667,101.51 89.7812,102.563 C89.4167,102.854 88.9375,103.089 88.3437,103.266 C88.4167,104.109 88.4531,104.792 88.4531,105.313 C88.4531,105.417 88.4375,105.797 88.4062,106.453 C88.3542,107.661 87.9375,108.708 87.1562,109.594 C86.4062,110.469 85.4687,110.906 84.3437,110.906 C83.2917,110.906 82.3958,110.536 81.6562,109.797 C80.9062,109.036 80.5312,108.125 80.5312,107.063 C80.5312,106.5 80.75,106.021 81.1875,105.625 C81.625,105.24 82.1354,105.047 82.7187,105.047 C83.2396,105.047 83.6771,105.25 84.0312,105.656 C84.3958,106.031 84.5781,106.5 84.5781,107.063 C84.5781,107.563 84.3958,107.995 84.0312,108.359 C83.6667,108.724 83.2292,108.906 82.7187,108.906 C82.5104,108.906 82.3125,108.87 82.125,108.797 C82.6979,109.641 83.4583,110.063 84.4062,110.063 C85.3021,110.063 86.0365,109.698 86.6094,108.969 C87.2135,108.219 87.5417,107.339 87.5937,106.328 C87.6146,105.703 87.625,105.349 87.625,105.266 C87.625,104.536 87.599,103.938 87.5469,103.469 C86.901,103.573 86.3229,103.625 85.8125,103.625 C84,103.625 82.4583,102.906 81.1875,101.469 C79.9375,100.021 79.3125,98.3021 79.3125,96.3125 C79.3125,95.8958 79.349,95.474 79.4219,95.0469 C79.5052,94.6927 79.6042,94.3073 79.7187,93.8906 C79.7812,93.651 79.9583,93.2708 80.25,92.75 C80.3542,92.5938 80.4714,92.3984 80.6016,92.1641 C80.7318,91.9297 80.8229,91.776 80.875,91.7031 C81,91.4427 81.25,91.0885 81.625,90.6406 C81.7292,90.526 81.8385,90.3984 81.9531,90.2578 C82.0677,90.1172 82.1641,90 82.2422,89.9063 C82.3203,89.8125 82.3776,89.7396 82.4141,89.6875 C82.4505,89.6354 82.7448,89.2917 83.2969,88.6563 C83.4219,88.5208 83.5469,88.3802 83.6719,88.2344 C83.7969,88.0885 83.8984,87.9714 83.9766,87.8828 C84.0547,87.7943 84.1146,87.7344 84.1562,87.7031 C83.6875,86.151 83.3906,84.9115 83.2656,83.9844 C83.1823,83.2448 83.1406,82.2292 83.1406,80.9375 C83.1406,79.8021 83.401,78.7396 83.9219,77.75 C84.4219,76.7292 85.1302,75.8906 86.0469,75.2344 C86.1094,75.1927 86.1719,75.1719 86.2344,75.1719 C86.3281,75.1719 86.3958,75.1927 86.4375,75.2344 C87.1354,76.0781 87.7396,77.1771 88.25,78.5313 C88.7708,79.8854 89.0312,81.1198 89.0312,82.2344 C89.0312,83.4844 88.7344,84.6563 88.1406,85.75 C87.4635,86.9063 86.5885,88.1042 85.5156,89.3438 C85.7865,90.1979 86.151,91.5417 86.6094,93.375 M88.2656,102.469 C88.9427,102.219 89.474,101.797 89.8594,101.203 C90.276,100.63 90.4844,99.9844 90.4844,99.2656 C90.4844,98.3385 90.1719,97.5156 89.5469,96.7969 C88.901,96.0573 88.0833,95.6406 87.0937,95.5469 C87.6562,98.2969 88.0469,100.604 88.2656,102.469 M80.7187,97.9531 C80.7187,99.2448 81.2396,100.38 82.2812,101.359 C83.3437,102.307 84.5417,102.781 85.875,102.781 C86.4167,102.781 86.9479,102.74 87.4687,102.656 C87.2604,100.677 86.849,98.3073 86.2344,95.5469 C85.4948,95.6302 84.9062,95.8906 84.4687,96.3281 C84.0312,96.7865 83.8125,97.3021 83.8125,97.875 C83.8125,98.8646 84.3437,99.6667 85.4062,100.281 C85.4896,100.375 85.5312,100.474 85.5312,100.578 C85.5312,100.682 85.4896,100.776 85.4062,100.859 C85.3229,100.953 85.224,101 85.1094,101 C85.099,101 85.0417,100.99 84.9375,100.969 C84.1875,100.563 83.6146,100.042 83.2187,99.4063 C82.8333,98.7188 82.6406,98.0313 82.6406,97.3438 C82.6406,96.4479 82.9219,95.6354 83.4844,94.9063 C84.0677,94.1771 84.8281,93.7083 85.7656,93.5 C85.401,92.0417 85.1042,90.901 84.875,90.0781 C84.6667,90.3177 84.4167,90.6016 84.125,90.9297 C83.8333,91.2578 83.6615,91.4583 83.6094,91.5313 C83.1406,92.1354 82.7812,92.6094 82.5312,92.9531 C82.0833,93.5677 81.7552,94.0938 81.5469,94.5313 C81.3281,95.0313 81.1354,95.5729 80.9687,96.1563 C80.8021,96.7188 80.7187,97.3177 80.7187,97.9531 M87.2344,78.0938 C86.2552,78.5729 85.4896,79.2604 84.9375,80.1563 C84.3646,81.0833 84.0781,82.0781 84.0781,83.1406 C84.0781,84.0781 84.3125,85.3438 84.7812,86.9375 C85.7187,85.8021 86.4219,84.7552 86.8906,83.7969 C87.3802,82.776 87.625,81.7135 87.625,80.6094 C87.625,79.776 87.4948,78.9375 87.2344,78.0938"/>
<path class="Clef" d="M86.6094,40.875 C86.6094,40.875 86.651,40.875 86.7344,40.875 C86.7865,40.8646 86.8281,40.8594 86.8594,40.8594 C88.3177,40.8594 89.5156,41.375 90.4531,42.4063 C91.3906,43.4167 91.8594,44.599 91.8594,45.9531 C91.8594,47.6406 91.1667,49.0104 89.7812,50.0625 C89.4167,50.3542 88.9375,50.5885 88.3437,50.7656 C88.4167,51.6094 88.4531,52.2917 88.4531,52.8125 C88.4531,52.9167 88.4375,53.2969 88.4062,53.9531 C88.3542,55.1615 87.9375,56.2083 87.1562,57.0938 C86.4062,57.9688 85.4687,58.4063 84.3437,58.4063 C83.2917,58.4063 82.3958,58.0365 81.6562,57.2969 C80.9062,56.5365 80.5312,55.625 80.5312,54.5625 C80.5312,54 80.75,53.5208 81.1875,53.125 C81.625,52.7396 82.1354,52.5469 82.7187,52.5469 C83.2396,52.5469 83.6771,52.75 84.0312,53.1563 C84.3958,53.5313 84.5781,54 84.5781,54.5625 C84.5781,55.0625 84.3958,55.4948 84.0312,55.8594 C83.6667,56.224 83.2292,56.4063 82.7187,56.4063 C82.5104,56.4063 82.3125,56.3698 82.125,56.2969 C82.6979,57.1406 83.4583,57.5625 84.4062,57.5625 C85.3021,57.5625 86.0365,57.1979 86.6094,56.4688 C87.2135,55.7188 87.5417,54.8385 87.5937,53.8281 C87.6146,53.2031 87.625,52.849 87.625,52.7656 C87.625,52.0365 87.599,51.4375 87.5469,50.9688 C86.901,51.0729 86.3229,51.125 85.8125,51.125 C84,51.125 82.4583,50.4063 81.1875,48.9688 C79.9375,47.5208 79.3125,45.8021 79.3125,43.8125 C79.3125,43.3958 79.349,42.974 79.4219,42.5469 C79.5052,42.1927 79.6042,41.8073 79.7187,41.3906 C79.7812,41.151 79.9583,40.7708 80.25,40.25 C80.3542,40.0938 80.4714,39.8984 80.6016,39.6641 C80.7318,39.4297 80.8229,39.276 80.875,39.2031 C81,38.9427 81.25,38.5885 81.625,38.1406 C81.7292,38.026 81.8385,37.8984 81.9531,37.7578 C82.0677,37.6172 82.1641,37.5 82.2422,37.4063 C82.3203,37.3125 82.3776,37.2396 82.4141,37.1875 C82.4505,37.1354 82.7448,36.7917 83.2969,36.1563 C83.4219,36.0208 83.5469,35.8802 83.6719,35.7344 C83.7969,35.5885 83.8984,35.4714 83.9766,35.3828 C84.0547,35.2943 84.1146,35.2344 84.1562,35.2031 C83.6875,33.651 83.3906,32.4115 83.2656,31.4844 C83.1823,30.7448 83.1406,29.7292 83.1406,28.4375 C83.1406,27.3021 83.401,26.2396 83.9219,25.25 C84.4219,24.2292 85.1302,23.3906 86.0469,22.7344 C86.1094,22.6927 86.1719,22.6719 86.2344,22.6719 C86.3281,22.6719 86.3958,22.6927 86.4375,22.7344 C87.1354,23.5781 87.7396,24.6771 88.25,26.0313 C88.7708,27.3854 89.0312,28.6198 89.0312,29.7344 C89.0312,30.9844 88.7344,32.1563 88.1406,33.25 C87.4635,34.4063 86.5885,35.6042 85.5156,36.8438 C85.7865,37.6979 86.151,39.0417 86.6094,40.875 M88.2656,49.9688 C88.9427,49.7188 89.474,49.2969 89.8594,48.7031 C90.276,48.1302 90.4844,47.4844 90.4844,46.7656 C90.4844,45.8385 90.1719,45.0156 89.5469,44.2969 C88.901,43.5573 88.0833,43.1406 87.0937,43.0469 C87.6562,45.7969 88.0469,48.1042 88.2656,49.9688 M80.7187,45.4531 C80.7187,46.7448 81.2396,47.8802 82.2812,48.8594 C83.3437,49.8073 84.5417,50.2813 85.875,50.2813 C86.4167,50.2813 86.9479,50.2396 87.4687,50.1563 C87.2604,48.1771 86.849,45.8073 86.2344,43.0469 C85.4948,43.1302 84.9062,43.3906 84.4687,43.8281 C84.0312,44.2865 83.8125,44.8021 83.8125,45.375 C83.8125,46.3646 84.3437,47.1667 85.4062,47.7813 C85.4896,47.875 85.5312,47.974 85.5312,48.0781 C85.5312,48.1823 85.4896,48.276 85.4062,48.3594 C85.3229,48.4531 85.224,48.5 85.1094,48.5 C85.099,48.5 85.0417,48.4896 84.9375,48.4688 C84.1875,48.0625 83.6146,47.5417 83.2187,46.9063 C82.8333,46.2188 82.6406,45.5313 82.6406,44.8438 C82.6406,43.9479 82.9219,43.1354 83.4844,42.4063 C84.0677,41.6771 84.8281,41.2083 85.7656,41 C85.401,39.5417 85.1042,38.401 84.875,37.5781 C84.6667,37.8177 84.4167,38.1016 84.125,38.4297 C83.8333,38.7578 83.6615,38.9583 83.6094,39.0313 C83.1406,39.6354 82.7812,40.1094 82.5312,40.4531 C82.0833,41.0677 81.7552,41.5938 81.5469,42.0313 C81.3281,42.5313 81.1354,43.0729 80.9687,43.6563 C80.8021,44.2188 80.7187,44.8177 80.7187,45.4531 M87.2344,25.5938 C86.2552,26.0729 85.4896,26.7604 84.9375,27.6563 C84.3646,28.5833 84.0781,29.5781 84.0781,30.6406 C84.0781,31.5781 84.3125,32.8438 84.7812,34.4375 C85.7187,33.3021 86.4219,32.2552 86.8906,31.2969 C87.3802,30.276 87.625,29.2135 87.625,28.1094 C87.625,27.276 87.4948,26.4375 87.2344,25.5938"/>
<path class="TimeSig" d="M101.403,83.75 C101.789,83.75 102.119,83.7057 102.395,83.6172 C102.671,83.5286 102.846,83.4844 102.919,83.4844 C103.012,83.4844 103.085,83.5104 103.137,83.5625 C103.179,83.5938 103.205,83.6354 103.216,83.6875 C103.216,83.7188 103.2,83.7604 103.169,83.8125 L97.4969,90.4219 L100.825,90.4219 L100.825,87.7969 C100.825,87.6302 100.872,87.4844 100.966,87.3594 C101.122,87.2344 101.252,87.1563 101.356,87.125 C101.523,87.0521 101.731,86.8698 101.981,86.5781 C102.19,86.349 102.44,85.9427 102.731,85.3594 C102.762,85.276 102.82,85.2344 102.903,85.2344 C103.059,85.2344 103.148,85.3281 103.169,85.5156 L103.169,90.4219 L104.606,90.4219 C104.783,90.4219 104.887,90.5156 104.919,90.7031 C104.919,90.901 104.815,91 104.606,91 L103.169,91 L103.169,91.1563 C103.169,91.6771 103.299,92.1198 103.559,92.4844 C103.861,92.849 104.216,93.0313 104.622,93.0313 C104.778,93.0313 104.856,93.1094 104.856,93.2656 C104.856,93.4219 104.778,93.5 104.622,93.5 C104.351,93.5 103.908,93.4635 103.294,93.3906 C102.731,93.2969 102.294,93.25 101.981,93.25 C101.658,93.25 101.221,93.2969 100.669,93.3906 C100.085,93.4635 99.6531,93.5 99.3719,93.5 C99.2156,93.5 99.1375,93.4219 99.1375,93.2656 C99.1375,93.1094 99.2156,93.0313 99.3719,93.0313 C99.7677,93.0313 100.117,92.849 100.419,92.4844 C100.69,92.1198 100.825,91.6771 100.825,91.1563 L100.825,91 L97.4969,91 C97.2677,91 97.1115,90.9479 97.0281,90.8438 C96.9135,90.7708 96.8562,90.6667 96.8562,90.5313 C96.8562,90.4896 96.9552,90.3542 97.1531,90.125 C97.3823,89.8646 97.6167,89.5469 97.8562,89.1719 C98.1479,88.724 98.424,88.2656 98.6844,87.7969 C98.9656,87.2656 99.1948,86.651 99.3719,85.9531 C99.5594,85.2552 99.6531,84.5417 99.6531,83.8125 C99.6531,83.6042 99.7469,83.5 99.9344,83.5 C99.976,83.5 100.059,83.5208 100.184,83.5625 C100.226,83.5729 100.309,83.5911 100.434,83.6172 C100.559,83.6432 100.658,83.6667 100.731,83.6875 C100.971,83.7292 101.195,83.75 101.403,83.75"/>
<path class="TimeSig" d="M101.403,93.75 C101.789,93.75 102.119,93.7057 102.395,93.6172 C102.671,93.5286 102.846,93.4844 102.919,93.4844 C103.012,93.4844 103.085,93.5104 103.137,93.5625 C103.179,93.5938 103.205,93.6354 103.216,93.6875 C103.216,93.7188 103.2,93.7604 103.169,93.8125 L97.4969,100.422 L100.825,100.422 L100.825,97.7969 C100.825,97.6302 100.872,97.4844 100.966,97.3594 C101.122,97.2344 101.252,97.1563 101.356,97.125 C101.523,97.0521 101.731,96.8698 101.981,96.5781 C102.19,96.349 102.44,95.9427 102.731,95.3594 C102.762,95.276 102.82,95.2344 102.903,95.2344 C103.059,95.2344 103.148,95.3281 103.169,95.5156 L103.169,100.422 L104.606,100.422 C104.783,100.422 104.887,100.516 104.919,100.703 C104.919,100.901 104.815,101 104.606,101 L103.169,101 L103.169,101.156 C103.169,101.677 103.299,102.12 103.559,102.484 C103.861,102.849 104.216,103.031 104.622,103.031 C104.778,103.031 104.856,103.109 104.856,103.266 C104.856,103.422 104.778,103.5 104.622,103.5 C104.351,103.5 103.908,103.464 103.294,103.391 C102.731,103.297 102.294,103.25 101.981,103.25 C101.658,103.25 101.221,103.297 100.669,103.391 C100.085,103.464 99.6531,103.5 99.3719,103.5 C99.2156,103.5 99.1375,103.422 99.1375,103.266 C99.1375,103.109 99.2156,103.031 99.3719,103.031 C99.7677,103.031 100.117,102.849 100.419,102.484 C100.69,102.12 100.825,101.677 100.825,101.156 L100.825,101 L97.4969,101 C97.2677,101 97.1115,100.948 97.0281,100.844 C96.9135,100.771 96.8562,100.667 96.8562,100.531 C96.8562,100.49 96.9552,100.354 97.1531,100.125 C97.3823,99.8646 97.6167,99.5469 97.8562,99.1719 C98.1479,98.724 98.424,98.2656 98.6844,97.7969 C98.9656,97.2656 99.1948,96.651 99.3719,95.9531 C99.5594,95.2552 99.6531,94.5417 99.6531,93.8125 C99.6531,93.6042 99.7469,93.5 99.9344,93.5 C99.976,93.5 100.059,93.5208 100.184,93.5625 C100.226,93.5729 100.309,93.5911 100.434,93.6172 C100.559,93.6432 100.658,93.6667 100.731,93.6875 C100.971,93.7292 101.195,93.75 101.403,93.75"/>
<path class="TimeSig" d="M101.403,31.25 C101.789,31.25 102.119,31.2057 102.395,31.1172 C102.671,31.0286 102.846,30.9844 102.919,30.9844 C103.012,30.9844 103.085,31.0104 103.137,31.0625 C103.179,31.0938 103.205,31.1354 103.216,31.1875 C103.216,31.2188 103.2,31.2604 103.169,31.3125 L97.4969,37.9219 L100.825,37.9219 L100.825,35.2969 C100.825,35.1302 100.872,34.9844 100.966,34.8594 C101.122,34.7344 101.252,34.6563 101.356,34.625 C101.523,34.5521 101.731,34.3698 101.981,34.0781 C102.19,33.849 102.44,33.4427 102.731,32.8594 C102.762,32.776 102.82,32.7344 102.903,32.7344 C103.059,32.7344 103.148,32.8281 103.169,33.0156 L103.169,37.9219 L104.606,37.9219 C104.783,37.9219 104.887,38.0156 104.919,38.2031 C104.919,38.401 104.815,38.5 104.606,38.5 L103.169,38.5 L103.169,38.6563 C103.169,39.1771 103.299,39.6198 103.559,39.9844 C103.861,40.349 104.216,40.5313 104.622,40.5313 C104.778,40.5313 104.856,40.6094 104.856,40.7656 C104.856,40.9219 104.778,41 104.622,41 C104.351,41 103.908,40.9635 103.294,40.8906 C102.731,40.7969 102.294,40.75 101.981,40.75 C101.658,40.75 101.221,40.7969 100.669,40.8906 C100.085,40.9635 99.6531,41 99.3719,41 C99.2156,41 99.1375,40.9219 99.1375,40.7656 C99.1375,40.6094 99.2156,40.5313 99.3719,40.5313 C99.7677,40.5313 100.117,40.349 100.419,39.9844 C100.69,39.6198 100.825,39.1771 100.825,38.6563 L100.825,38.5 L97.4969,38.5 C97.2677,38.5 97.1115,38.4479 97.0281,38.3438 C96.9135,38.2708 96.8562,38.1667 96.8562,38.0313 C96.8562,37.9896 96.9552,37.8542 97.1531,37.625 C97.3823,37.3646 97.6167,37.0469 97.8562,36.6719 C98.1479,36.224 98.424,35.7656 98.6844,35.2969 C98.9656,34.7656 99.1948,34.151 99.3719,33.4531 C99.5594,32.7552 99.6531,32.0417 99.6531,31.3125 C99.6531,31.1042 99.7469,31 99.9344,31 C99.976,31 100.059,31.0208 100.184,31.0625 C100.226,31.0729 100.309,31.0911 100.434,31.1172 C100.559,31.1432 100.658,31.1667 100.731,31.1875 C100.971,31.2292 101.195,31.25 101.403,31.25"/>
<path class="TimeSig" d="M101.403,41.25 C101.789,41.25 102.119,41.2057 102.395,41.1172 C102.671,41.0286 102.846,40.9844 102.919,40.9844 C103.012,40.9844 103.085,41.0104 103.137,41.0625 C103.179,41.0938 103.205,41.1354 103.216,41.1875 C103.216,41.2188 103.2,41.2604 103.169,41.3125 L97.4969,47.9219 L100.825,47.9219 L100.825,45.2969 C100.825,45.1302 100.872,44.9844 100.966,44.8594 C101.122,44.7344 101.252,44.6563 101.356,44.625 C101.523,44.5521 101.731,44.3698 101.981,44.0781 C102.19,43.849 102.44,43.4427 102.731,42.8594 C102.762,42.776 102.82,42.7344 102.903,42.7344 C103.059,42.7344 103.148,42.8281 103.169,43.0156 L103.169,47.9219 L104.606,47.9219 C104.783,47.9219 104.887,48.0156 104.919,48.2031 C104.919,48.401 104.815,48.5 104.606,48.5 L103.169,48.5 L103.169,48.6563 C103.169,49.1771 103.299,49.6198 103.559,49.9844 C103.861,50.349 104.216,50.5313 104.622,50.5313 C104.778,50.5313 104.856,50.6094 104.856,50.7656 C104.856,50.9219 104.778,51 104.622,51 C104.351,51 103.908,50.9635 103.294,50.8906 C102.731,50.7969 102.294,50.75 101.981,50.75 C101.658,50.75 101.221,50.7969 100.669,50.8906 C100.085,50.9635 99.6531,51 99.3719,51 C99.2156,51 99.1375,50.9219 99.1375,50.7656 C99.1375,50.6094 99.2156,50.5313 99.3719,50.5313 C99.7677,50.5313 100.117,50.349 100.419,49.9844 C100.69,49.6198 100.825,49.1771 100.825,48.6563 L100.825,48.5 L97.4969,48.5 C97.2677,48.5 97.1115,48.4479 97.0281,48.3438 C96.9135,48.2708 96.8562,48.1667 96.8562,48.0313 C96.8562,47.9896 96.9552,47.8542 97.1531,47.625 C97.3823,47.3646 97.6167,47.0469 97.8562,46.6719 C98.1479,46.224 98.424,45.7656 98.6844,45.2969 C98.9656,44.7656 99.1948,44.151 99.3719,43.4531 C99.5594,42.7552 99.6531,42.0417 99.6531,41.3125 C99.6531,41.1042 99.7469,41 99.9344,41 C99.976,41 100.059,41.0208 100.184,41.0625 C100.226,41.0729 100.309,41.0911 100.434,41.1172 C100.559,41.1432 100.658,41.1667 100.731,41.1875 C100.971,41.2292 101.195,41.25 101.403,41.25"/>
<path class="Rest" d="M513.717,91.9375 C513.717,91.6979 513.852,91.4375 514.123,91.1563 C514.31,90.9479 514.597,90.6979 514.982,90.4063 C515.264,90.2188 515.54,89.9271 515.81,89.5313 C516.071,89.1563 516.201,88.7448 516.201,88.2969 C516.201,87.776 516.034,87.3177 515.701,86.9219 L514.998,86.0781 C514.946,86.026 514.92,85.9609 514.92,85.8828 C514.92,85.8047 514.956,85.7344 515.029,85.6719 C515.123,85.599 515.201,85.5625 515.264,85.5625 C515.357,85.5625 515.43,85.6042 515.482,85.6875 L518.514,89.2813 C518.639,89.4479 518.701,89.6146 518.701,89.7813 C518.701,90.0208 518.571,90.2813 518.31,90.5625 C518.144,90.75 517.868,91 517.482,91.3125 C517.18,91.4896 516.894,91.7813 516.623,92.1875 C516.363,92.5625 516.232,92.974 516.232,93.4219 C516.232,93.974 516.389,94.4375 516.701,94.8125 L518.373,96.7813 C518.415,96.8229 518.446,96.8906 518.467,96.9844 C518.467,97.0677 518.435,97.1458 518.373,97.2188 C518.279,97.2813 518.201,97.3125 518.139,97.3125 C518.118,97.3125 518.014,97.2396 517.826,97.0938 C517.628,96.9375 517.368,96.7865 517.045,96.6406 C516.68,96.5052 516.321,96.4375 515.967,96.4375 C515.644,96.4375 515.378,96.526 515.17,96.7031 C514.993,96.8906 514.904,97.2448 514.904,97.7656 C514.904,98.5573 515.092,99.1823 515.467,99.6406 C515.508,99.6927 515.514,99.7552 515.482,99.8281 C515.461,99.8802 515.415,99.9063 515.342,99.9063 C515.258,99.9063 515.06,99.6719 514.748,99.2031 C514.415,98.7135 514.107,98.1458 513.826,97.5 C513.524,96.8229 513.373,96.2656 513.373,95.8281 C513.373,95.2656 513.639,94.9844 514.17,94.9844 C514.784,94.9844 515.581,95.1927 516.56,95.6094 L513.92,92.4375 C513.784,92.2708 513.717,92.1042 513.717,91.9375"/>
<path class="Rest" d="M489.396,39.125 L482.287,39.125 C482.151,39.125 482.083,39.0625 482.083,38.9375 L482.083,36.2031 C482.083,36.0677 482.151,36 482.287,36 L489.396,36 C489.521,36 489.583,36.0677 489.583,36.2031 L489.583,38.9375 C489.583,39.0625 489.521,39.125 489.396,39.125"/>
<path class="Rest" d="M377.38,39.125 L370.27,39.125 C370.135,39.125 370.067,39.0625 370.067,38.9375 L370.067,36.2031 C370.067,36.0677 370.135,36 370.27,36 L377.38,36 C377.505,36 377.567,36.0677 377.567,36.2031 L377.567,38.9375 C377.567,39.0625 377.505,39.125 377.38,39.125"/>
<path class="Rest" d="M264.738,91.625 L257.629,91.625 C257.493,91.625 257.426,91.5625 257.426,91.4375 L257.426,88.7031 C257.426,88.5677 257.493,88.5 257.629,88.5 L264.738,88.5 C264.863,88.5 264.926,88.5677 264.926,88.7031 L264.926,91.4375 C264.926,91.5625 264.863,91.625 264.738,91.625"/>
<path class="Rest" d="M159.94,91.625 L152.83,91.625 C152.695,91.625 152.627,91.5625 152.627,91.4375 L152.627,88.7031 C152.627,88.5677 152.695,88.5 152.83,88.5 L159.94,88.5 C160.065,88.5 160.127,88.5677 160.127,88.7031 L160.127,91.4375 C160.127,91.5625 160.065,91.625 159.94,91.625"/>
<path class="Tempo" d="M99.8094,8.45313 C99.6062,8.29688 99.3562,8.20313 99.0437,8.20313 C97.8562,8.20313 96.9031,9.07813 96.9031,10.0156 C96.9031,10.5781 97.3562,10.9219 97.95,10.9219 C98.9031,10.9219 100.091,10.0156 100.091,9.10938 L100.091,2.96875 L99.8094,2.96875 L99.8094,8.45313 "/>
<path class="Tempo" d="M110.45,7.03125 L103.841,7.03125 L103.841,5.875 L110.45,5.875 L110.45,7.03125 M110.45,9.95313 L103.841,9.95313 L103.841,8.8125 L110.45,8.8125 L110.45,9.95313 M115.997,4.0625 C115.903,4.0625 115.791,4.08333 115.661,4.125 C115.531,4.16667 115.39,4.21615 115.239,4.27344 C115.088,4.33073 115.002,4.36458 114.981,4.375 L114.981,4.0625 L117.997,2.75 L118.2,2.75 L118.2,9.57813 C118.2,10.0469 118.281,10.3516 118.442,10.4922 C118.604,10.6328 118.955,10.7083 119.497,10.7188 L119.497,11 L114.997,11 L114.997,10.7188 C115.591,10.7083 115.979,10.6276 116.161,10.4766 C116.343,10.3255 116.434,10.0052 116.434,9.51563 L116.434,4.89063 C116.434,4.33854 116.289,4.0625 115.997,4.0625 M120.575,5.1875 C121.179,3.5625 122.059,2.75 123.216,2.75 C123.861,2.75 124.393,2.95573 124.809,3.36719 C125.226,3.77865 125.434,4.30208 125.434,4.9375 C125.434,5.82292 124.976,6.69792 124.059,7.5625 L122.122,9.40625 L123.934,9.40625 C124.549,9.40625 124.945,9.35677 125.122,9.25781 C125.299,9.15885 125.471,8.89583 125.637,8.46875 L125.934,8.46875 L125.387,11 L120.403,11 L120.403,10.7188 C121.768,9.27083 122.674,8.20052 123.122,7.50781 C123.57,6.8151 123.794,6.19271 123.794,5.64063 C123.794,5.23438 123.664,4.8776 123.403,4.57031 C123.143,4.26302 122.799,4.10938 122.372,4.10938 C121.757,4.10938 121.268,4.46875 120.903,5.1875 L120.575,5.1875 M126.481,6.92188 C126.481,5.74479 126.742,4.75521 127.262,3.95313 C127.783,3.15104 128.429,2.75 129.2,2.75 C129.971,2.75 130.614,3.15104 131.13,3.95313 C131.645,4.75521 131.903,5.75521 131.903,6.95313 C131.903,8.16146 131.648,9.16406 131.137,9.96094 C130.627,10.7578 129.986,11.1563 129.216,11.1563 C128.414,11.1563 127.757,10.7604 127.247,9.96875 C126.736,9.17708 126.481,8.16146 126.481,6.92188 M129.216,10.8125 C129.476,10.8125 129.674,10.6328 129.809,10.2734 C129.945,9.91406 130.012,9.27083 130.012,8.34375 L130.012,5.59375 C130.012,4.70833 129.95,4.06771 129.825,3.67188 C129.7,3.27604 129.486,3.07813 129.184,3.07813 C128.893,3.07813 128.687,3.27083 128.567,3.65625 C128.447,4.04167 128.387,4.6875 128.387,5.59375 L128.387,8.34375 C128.387,9.22917 128.45,9.86198 128.575,10.2422 C128.7,10.6224 128.914,10.8125 129.216,10.8125"/>
</svg>
