<?xml version="1.0" encoding="UTF-8" standalone="no"?>
<!-- Created with matplotlib (https://matplotlib.org/) -->

<svg
   xmlns:dc="http://purl.org/dc/elements/1.1/"
   xmlns:cc="http://creativecommons.org/ns#"
   xmlns:rdf="http://www.w3.org/1999/02/22-rdf-syntax-ns#"
   xmlns:svg="http://www.w3.org/2000/svg"
   xmlns="http://www.w3.org/2000/svg"
   xmlns:xlink="http://www.w3.org/1999/xlink"
   xmlns:sodipodi="http://sodipodi.sourceforge.net/DTD/sodipodi-0.dtd"
   xmlns:inkscape="http://www.inkscape.org/namespaces/inkscape"
   height="288pt"
   version="1.1"
   viewBox="0 0 432 288"
   width="432pt"
   id="svg483"
   sodipodi:docname="range.svg"
   inkscape:version="0.92.3 (2405546, 2018-03-11)"
   inkscape:export-filename="D:\04_Schule\42_Kanti\Matrua\Music_generation\Git\Music-Generation\doc\releases\2.09\range.png"
   inkscape:export-xdpi="1000"
   inkscape:export-ydpi="1000">
  <metadata
     id="metadata487">
    <rdf:RDF>
      <cc:Work
         rdf:about="">
        <dc:format>image/svg+xml</dc:format>
        <dc:type
           rdf:resource="http://purl.org/dc/dcmitype/StillImage" />
      </cc:Work>
    </rdf:RDF>
  </metadata>
  <sodipodi:namedview
     pagecolor="#ffffff"
     bordercolor="#666666"
     borderopacity="1"
     objecttolerance="10"
     gridtolerance="10"
     guidetolerance="10"
     inkscape:pageopacity="0"
     inkscape:pageshadow="2"
     inkscape:window-width="1920"
     inkscape:window-height="1001"
     id="namedview485"
     showgrid="false"
     inkscape:zoom="0.41616181"
     inkscape:cx="-763.77799"
     inkscape:cy="215.87072"
     inkscape:window-x="-9"
     inkscape:window-y="-9"
     inkscape:window-maximized="1"
     inkscape:current-layer="axes_1" />
  <defs
     id="defs4">
    <style
       type="text/css"
       id="style2">
*{stroke-linecap:butt;stroke-linejoin:round;white-space:pre;}
  </style>
  </defs>
  <g
     id="figure_1">
    <g
       id="patch_1"
       style="fill:none">
      <path
         d="M 0 288  L 432 288  L 432 0  L 0 0  z "
         style="fill:none"
         id="path6" />
    </g>
    <g
       id="axes_1">
      <g
         id="patch_2"
         style="fill:none">
        <path
           d="M 54 252  L 388.8 252  L 388.8 34.56  L 54 34.56  z "
           style="fill:none"
           id="path9" />
      </g>
      <g
         id="PolyCollection_1">
        <path
           clip-path="url(#pa7a2b3f54c)"
           d="M 69.218182 232.703377  L 69.218182 232.703377  L 71.754545 232.703377  L 74.290909 232.703377  L 76.827273 232.703377  L 79.363636 232.703377  L 81.9 232.703377  L 84.436364 232.703377  L 86.972727 232.703377  L 89.509091 232.703377  L 92.045455 232.703377  L 94.581818 232.703377  L 97.118182 232.703377  L 99.654545 232.703377  L 102.190909 232.703377  L 104.727273 232.703377  L 107.263636 232.703377  L 109.8 232.703377  L 112.336364 232.703377  L 114.872727 232.703377  L 117.409091 232.703377  L 119.945455 232.703377  L 122.481818 232.703377  L 125.018182 232.703377  L 127.554545 232.703377  L 130.090909 232.703377  L 132.627273 232.703377  L 135.163636 232.703377  L 137.7 232.703377  L 140.236364 232.703377  L 142.772727 232.703377  L 145.309091 232.703377  L 147.845455 232.703377  L 150.381818 232.703377  L 152.918182 232.703377  L 155.454545 232.703377  L 157.990909 232.703377  L 160.527273 232.703377  L 163.063636 232.703377  L 165.6 232.703377  L 168.136364 232.703377  L 170.672727 232.703377  L 173.209091 232.703377  L 175.745455 232.703377  L 178.281818 232.703377  L 180.818182 232.703377  L 183.354545 232.703377  L 185.890909 232.703377  L 188.427273 232.703377  L 190.963636 232.703377  L 193.5 232.703377  L 196.036364 232.703377  L 198.572727 232.703377  L 201.109091 232.703377  L 203.645455 232.703377  L 206.181818 232.703377  L 208.718182 232.703377  L 211.254545 219.525195  L 213.790909 204.464416  L 216.327273 189.403636  L 218.863636 176.225455  L 221.4 161.164675  L 223.936364 146.103896  L 226.472727 132.925714  L 229.009091 117.864935  L 231.545455 102.804156  L 234.081818 89.625974  L 236.618182 74.565195  L 239.154545 59.504416  L 241.690909 44.443636  L 244.227273 44.443636  L 246.763636 44.443636  L 249.3 44.443636  L 251.836364 44.443636  L 254.372727 44.443636  L 256.909091 44.443636  L 259.445455 44.443636  L 261.981818 44.443636  L 264.518182 44.443636  L 267.054545 44.443636  L 269.590909 44.443636  L 272.127273 44.443636  L 274.663636 44.443636  L 277.2 44.443636  L 279.736364 44.443636  L 282.272727 44.443636  L 284.809091 76.447792  L 287.345455 108.451948  L 289.881818 138.573506  L 292.418182 170.577662  L 294.954545 202.581818  L 297.490909 232.703377  L 300.027273 232.703377  L 302.563636 232.703377  L 305.1 232.703377  L 307.636364 232.703377  L 310.172727 232.703377  L 312.709091 232.703377  L 315.245455 232.703377  L 317.781818 232.703377  L 320.318182 232.703377  L 322.854545 232.703377  L 325.390909 232.703377  L 327.927273 232.703377  L 330.463636 232.703377  L 333 232.703377  L 335.536364 232.703377  L 338.072727 232.703377  L 340.609091 232.703377  L 343.145455 232.703377  L 345.681818 232.703377  L 348.218182 232.703377  L 350.754545 232.703377  L 353.290909 232.703377  L 355.827273 232.703377  L 358.363636 232.703377  L 360.9 232.703377  L 363.436364 232.703377  L 365.972727 232.703377  L 368.509091 232.703377  L 371.045455 232.703377  L 373.581818 232.703377  L 373.581818 232.703377  L 373.581818 232.703377  L 371.045455 232.703377  L 368.509091 232.703377  L 365.972727 232.703377  L 363.436364 232.703377  L 360.9 232.703377  L 358.363636 232.703377  L 355.827273 232.703377  L 353.290909 232.703377  L 350.754545 232.703377  L 348.218182 232.703377  L 345.681818 232.703377  L 343.145455 232.703377  L 340.609091 232.703377  L 338.072727 232.703377  L 335.536364 232.703377  L 333 232.703377  L 330.463636 232.703377  L 327.927273 232.703377  L 325.390909 232.703377  L 322.854545 232.703377  L 320.318182 232.703377  L 317.781818 232.703377  L 315.245455 232.703377  L 312.709091 232.703377  L 310.172727 232.703377  L 307.636364 232.703377  L 305.1 232.703377  L 302.563636 232.703377  L 300.027273 232.703377  L 297.490909 232.703377  L 294.954545 232.703377  L 292.418182 232.703377  L 289.881818 232.703377  L 287.345455 232.703377  L 284.809091 232.703377  L 282.272727 232.703377  L 279.736364 232.703377  L 277.2 232.703377  L 274.663636 232.703377  L 272.127273 232.703377  L 269.590909 232.703377  L 267.054545 232.703377  L 264.518182 232.703377  L 261.981818 232.703377  L 259.445455 232.703377  L 256.909091 232.703377  L 254.372727 232.703377  L 251.836364 232.703377  L 249.3 232.703377  L 246.763636 232.703377  L 244.227273 232.703377  L 241.690909 232.703377  L 239.154545 232.703377  L 236.618182 232.703377  L 234.081818 232.703377  L 231.545455 232.703377  L 229.009091 232.703377  L 226.472727 232.703377  L 223.936364 232.703377  L 221.4 232.703377  L 218.863636 232.703377  L 216.327273 232.703377  L 213.790909 232.703377  L 211.254545 232.703377  L 208.718182 232.703377  L 206.181818 232.703377  L 203.645455 232.703377  L 201.109091 232.703377  L 198.572727 232.703377  L 196.036364 232.703377  L 193.5 232.703377  L 190.963636 232.703377  L 188.427273 232.703377  L 185.890909 232.703377  L 183.354545 232.703377  L 180.818182 232.703377  L 178.281818 232.703377  L 175.745455 232.703377  L 173.209091 232.703377  L 170.672727 232.703377  L 168.136364 232.703377  L 165.6 232.703377  L 163.063636 232.703377  L 160.527273 232.703377  L 157.990909 232.703377  L 155.454545 232.703377  L 152.918182 232.703377  L 150.381818 232.703377  L 147.845455 232.703377  L 145.309091 232.703377  L 142.772727 232.703377  L 140.236364 232.703377  L 137.7 232.703377  L 135.163636 232.703377  L 132.627273 232.703377  L 130.090909 232.703377  L 127.554545 232.703377  L 125.018182 232.703377  L 122.481818 232.703377  L 119.945455 232.703377  L 117.409091 232.703377  L 114.872727 232.703377  L 112.336364 232.703377  L 109.8 232.703377  L 107.263636 232.703377  L 104.727273 232.703377  L 102.190909 232.703377  L 99.654545 232.703377  L 97.118182 232.703377  L 94.581818 232.703377  L 92.045455 232.703377  L 89.509091 232.703377  L 86.972727 232.703377  L 84.436364 232.703377  L 81.9 232.703377  L 79.363636 232.703377  L 76.827273 232.703377  L 74.290909 232.703377  L 71.754545 232.703377  L 69.218182 232.703377  z "
           style="fill:#1f77b4;fill-opacity:0.15;"
           id="path12" />
      </g>
      <g
         id="PolyCollection_2">
        <path
           clip-path="url(#pa7a2b3f54c)"
           d="M 69.218182 232.703377  L 69.218182 232.703377  L 71.754545 232.703377  L 74.290909 232.703377  L 76.827273 232.703377  L 79.363636 232.703377  L 81.9 232.703377  L 84.436364 232.703377  L 86.972727 232.703377  L 89.509091 232.703377  L 92.045455 232.703377  L 94.581818 232.703377  L 97.118182 232.703377  L 99.654545 232.703377  L 102.190909 232.703377  L 104.727273 232.703377  L 107.263636 232.703377  L 109.8 232.703377  L 112.336364 232.703377  L 114.872727 232.703377  L 117.409091 232.703377  L 119.945455 232.703377  L 122.481818 232.703377  L 125.018182 232.703377  L 127.554545 232.703377  L 130.090909 232.703377  L 132.627273 232.703377  L 135.163636 232.703377  L 137.7 232.703377  L 140.236364 232.703377  L 142.772727 232.703377  L 145.309091 232.703377  L 147.845455 232.703377  L 150.381818 232.703377  L 152.918182 232.703377  L 155.454545 232.703377  L 157.990909 232.703377  L 160.527273 232.703377  L 163.063636 232.703377  L 165.6 232.703377  L 168.136364 232.703377  L 170.672727 232.703377  L 173.209091 232.703377  L 175.745455 232.703377  L 178.281818 232.703377  L 180.818182 232.703377  L 183.354545 232.703377  L 185.890909 232.703377  L 188.427273 232.703377  L 190.963636 232.703377  L 193.5 219.525195  L 196.036364 204.464416  L 198.572727 189.403636  L 201.109091 176.225455  L 203.645455 161.164675  L 206.181818 146.103896  L 208.718182 132.925714  L 211.254545 117.864935  L 213.790909 102.804156  L 216.327273 89.625974  L 218.863636 74.565195  L 221.4 59.504416  L 223.936364 44.443636  L 226.472727 44.443636  L 229.009091 44.443636  L 231.545455 44.443636  L 234.081818 44.443636  L 236.618182 44.443636  L 239.154545 44.443636  L 241.690909 44.443636  L 244.227273 44.443636  L 246.763636 44.443636  L 249.3 44.443636  L 251.836364 44.443636  L 254.372727 44.443636  L 256.909091 44.443636  L 259.445455 44.443636  L 261.981818 44.443636  L 264.518182 68.917403  L 267.054545 91.508571  L 269.590909 115.982338  L 272.127273 138.573506  L 274.663636 163.047273  L 277.2 185.638442  L 279.736364 210.112208  L 282.272727 232.703377  L 284.809091 232.703377  L 287.345455 232.703377  L 289.881818 232.703377  L 292.418182 232.703377  L 294.954545 232.703377  L 297.490909 232.703377  L 300.027273 232.703377  L 302.563636 232.703377  L 305.1 232.703377  L 307.636364 232.703377  L 310.172727 232.703377  L 312.709091 232.703377  L 315.245455 232.703377  L 317.781818 232.703377  L 320.318182 232.703377  L 322.854545 232.703377  L 325.390909 232.703377  L 327.927273 232.703377  L 330.463636 232.703377  L 333 232.703377  L 335.536364 232.703377  L 338.072727 232.703377  L 340.609091 232.703377  L 343.145455 232.703377  L 345.681818 232.703377  L 348.218182 232.703377  L 350.754545 232.703377  L 353.290909 232.703377  L 355.827273 232.703377  L 358.363636 232.703377  L 360.9 232.703377  L 363.436364 232.703377  L 365.972727 232.703377  L 368.509091 232.703377  L 371.045455 232.703377  L 373.581818 232.703377  L 373.581818 232.703377  L 373.581818 232.703377  L 371.045455 232.703377  L 368.509091 232.703377  L 365.972727 232.703377  L 363.436364 232.703377  L 360.9 232.703377  L 358.363636 232.703377  L 355.827273 232.703377  L 353.290909 232.703377  L 350.754545 232.703377  L 348.218182 232.703377  L 345.681818 232.703377  L 343.145455 232.703377  L 340.609091 232.703377  L 338.072727 232.703377  L 335.536364 232.703377  L 333 232.703377  L 330.463636 232.703377  L 327.927273 232.703377  L 325.390909 232.703377  L 322.854545 232.703377  L 320.318182 232.703377  L 317.781818 232.703377  L 315.245455 232.703377  L 312.709091 232.703377  L 310.172727 232.703377  L 307.636364 232.703377  L 305.1 232.703377  L 302.563636 232.703377  L 300.027273 232.703377  L 297.490909 232.703377  L 294.954545 232.703377  L 292.418182 232.703377  L 289.881818 232.703377  L 287.345455 232.703377  L 284.809091 232.703377  L 282.272727 232.703377  L 279.736364 232.703377  L 277.2 232.703377  L 274.663636 232.703377  L 272.127273 232.703377  L 269.590909 232.703377  L 267.054545 232.703377  L 264.518182 232.703377  L 261.981818 232.703377  L 259.445455 232.703377  L 256.909091 232.703377  L 254.372727 232.703377  L 251.836364 232.703377  L 249.3 232.703377  L 246.763636 232.703377  L 244.227273 232.703377  L 241.690909 232.703377  L 239.154545 232.703377  L 236.618182 232.703377  L 234.081818 232.703377  L 231.545455 232.703377  L 229.009091 232.703377  L 226.472727 232.703377  L 223.936364 232.703377  L 221.4 232.703377  L 218.863636 232.703377  L 216.327273 232.703377  L 213.790909 232.703377  L 211.254545 232.703377  L 208.718182 232.703377  L 206.181818 232.703377  L 203.645455 232.703377  L 201.109091 232.703377  L 198.572727 232.703377  L 196.036364 232.703377  L 193.5 232.703377  L 190.963636 232.703377  L 188.427273 232.703377  L 185.890909 232.703377  L 183.354545 232.703377  L 180.818182 232.703377  L 178.281818 232.703377  L 175.745455 232.703377  L 173.209091 232.703377  L 170.672727 232.703377  L 168.136364 232.703377  L 165.6 232.703377  L 163.063636 232.703377  L 160.527273 232.703377  L 157.990909 232.703377  L 155.454545 232.703377  L 152.918182 232.703377  L 150.381818 232.703377  L 147.845455 232.703377  L 145.309091 232.703377  L 142.772727 232.703377  L 140.236364 232.703377  L 137.7 232.703377  L 135.163636 232.703377  L 132.627273 232.703377  L 130.090909 232.703377  L 127.554545 232.703377  L 125.018182 232.703377  L 122.481818 232.703377  L 119.945455 232.703377  L 117.409091 232.703377  L 114.872727 232.703377  L 112.336364 232.703377  L 109.8 232.703377  L 107.263636 232.703377  L 104.727273 232.703377  L 102.190909 232.703377  L 99.654545 232.703377  L 97.118182 232.703377  L 94.581818 232.703377  L 92.045455 232.703377  L 89.509091 232.703377  L 86.972727 232.703377  L 84.436364 232.703377  L 81.9 232.703377  L 79.363636 232.703377  L 76.827273 232.703377  L 74.290909 232.703377  L 71.754545 232.703377  L 69.218182 232.703377  z "
           style="fill:#ff7f0e;fill-opacity:0.15;"
           id="path15" />
      </g>
      <g
         id="PolyCollection_3">
        <path
           clip-path="url(#pa7a2b3f54c)"
           d="M 69.218182 232.703377  L 69.218182 232.703377  L 71.754545 232.703377  L 74.290909 232.703377  L 76.827273 232.703377  L 79.363636 232.703377  L 81.9 232.703377  L 84.436364 232.703377  L 86.972727 232.703377  L 89.509091 232.703377  L 92.045455 232.703377  L 94.581818 232.703377  L 97.118182 232.703377  L 99.654545 232.703377  L 102.190909 232.703377  L 104.727273 232.703377  L 107.263636 232.703377  L 109.8 232.703377  L 112.336364 232.703377  L 114.872727 232.703377  L 117.409091 232.703377  L 119.945455 232.703377  L 122.481818 232.703377  L 125.018182 232.703377  L 127.554545 232.703377  L 130.090909 232.703377  L 132.627273 232.703377  L 135.163636 232.703377  L 137.7 232.703377  L 140.236364 232.703377  L 142.772727 232.703377  L 145.309091 232.703377  L 147.845455 232.703377  L 150.381818 232.703377  L 152.918182 232.703377  L 155.454545 232.703377  L 157.990909 232.703377  L 160.527273 232.703377  L 163.063636 215.76  L 165.6 198.816623  L 168.136364 181.873247  L 170.672727 164.92987  L 173.209091 147.986494  L 175.745455 131.043117  L 178.281818 114.09974  L 180.818182 97.156364  L 183.354545 80.212987  L 185.890909 63.26961  L 188.427273 44.443636  L 190.963636 44.443636  L 193.5 44.443636  L 196.036364 44.443636  L 198.572727 44.443636  L 201.109091 44.443636  L 203.645455 44.443636  L 206.181818 44.443636  L 208.718182 44.443636  L 211.254545 44.443636  L 213.790909 44.443636  L 216.327273 44.443636  L 218.863636 44.443636  L 221.4 44.443636  L 223.936364 44.443636  L 226.472727 44.443636  L 229.009091 44.443636  L 231.545455 82.095584  L 234.081818 119.747532  L 236.618182 157.399481  L 239.154545 195.051429  L 241.690909 232.703377  L 244.227273 232.703377  L 246.763636 232.703377  L 249.3 232.703377  L 251.836364 232.703377  L 254.372727 232.703377  L 256.909091 232.703377  L 259.445455 232.703377  L 261.981818 232.703377  L 264.518182 232.703377  L 267.054545 232.703377  L 269.590909 232.703377  L 272.127273 232.703377  L 274.663636 232.703377  L 277.2 232.703377  L 279.736364 232.703377  L 282.272727 232.703377  L 284.809091 232.703377  L 287.345455 232.703377  L 289.881818 232.703377  L 292.418182 232.703377  L 294.954545 232.703377  L 297.490909 232.703377  L 300.027273 232.703377  L 302.563636 232.703377  L 305.1 232.703377  L 307.636364 232.703377  L 310.172727 232.703377  L 312.709091 232.703377  L 315.245455 232.703377  L 317.781818 232.703377  L 320.318182 232.703377  L 322.854545 232.703377  L 325.390909 232.703377  L 327.927273 232.703377  L 330.463636 232.703377  L 333 232.703377  L 335.536364 232.703377  L 338.072727 232.703377  L 340.609091 232.703377  L 343.145455 232.703377  L 345.681818 232.703377  L 348.218182 232.703377  L 350.754545 232.703377  L 353.290909 232.703377  L 355.827273 232.703377  L 358.363636 232.703377  L 360.9 232.703377  L 363.436364 232.703377  L 365.972727 232.703377  L 368.509091 232.703377  L 371.045455 232.703377  L 373.581818 232.703377  L 373.581818 232.703377  L 373.581818 232.703377  L 371.045455 232.703377  L 368.509091 232.703377  L 365.972727 232.703377  L 363.436364 232.703377  L 360.9 232.703377  L 358.363636 232.703377  L 355.827273 232.703377  L 353.290909 232.703377  L 350.754545 232.703377  L 348.218182 232.703377  L 345.681818 232.703377  L 343.145455 232.703377  L 340.609091 232.703377  L 338.072727 232.703377  L 335.536364 232.703377  L 333 232.703377  L 330.463636 232.703377  L 327.927273 232.703377  L 325.390909 232.703377  L 322.854545 232.703377  L 320.318182 232.703377  L 317.781818 232.703377  L 315.245455 232.703377  L 312.709091 232.703377  L 310.172727 232.703377  L 307.636364 232.703377  L 305.1 232.703377  L 302.563636 232.703377  L 300.027273 232.703377  L 297.490909 232.703377  L 294.954545 232.703377  L 292.418182 232.703377  L 289.881818 232.703377  L 287.345455 232.703377  L 284.809091 232.703377  L 282.272727 232.703377  L 279.736364 232.703377  L 277.2 232.703377  L 274.663636 232.703377  L 272.127273 232.703377  L 269.590909 232.703377  L 267.054545 232.703377  L 264.518182 232.703377  L 261.981818 232.703377  L 259.445455 232.703377  L 256.909091 232.703377  L 254.372727 232.703377  L 251.836364 232.703377  L 249.3 232.703377  L 246.763636 232.703377  L 244.227273 232.703377  L 241.690909 232.703377  L 239.154545 232.703377  L 236.618182 232.703377  L 234.081818 232.703377  L 231.545455 232.703377  L 229.009091 232.703377  L 226.472727 232.703377  L 223.936364 232.703377  L 221.4 232.703377  L 218.863636 232.703377  L 216.327273 232.703377  L 213.790909 232.703377  L 211.254545 232.703377  L 208.718182 232.703377  L 206.181818 232.703377  L 203.645455 232.703377  L 201.109091 232.703377  L 198.572727 232.703377  L 196.036364 232.703377  L 193.5 232.703377  L 190.963636 232.703377  L 188.427273 232.703377  L 185.890909 232.703377  L 183.354545 232.703377  L 180.818182 232.703377  L 178.281818 232.703377  L 175.745455 232.703377  L 173.209091 232.703377  L 170.672727 232.703377  L 168.136364 232.703377  L 165.6 232.703377  L 163.063636 232.703377  L 160.527273 232.703377  L 157.990909 232.703377  L 155.454545 232.703377  L 152.918182 232.703377  L 150.381818 232.703377  L 147.845455 232.703377  L 145.309091 232.703377  L 142.772727 232.703377  L 140.236364 232.703377  L 137.7 232.703377  L 135.163636 232.703377  L 132.627273 232.703377  L 130.090909 232.703377  L 127.554545 232.703377  L 125.018182 232.703377  L 122.481818 232.703377  L 119.945455 232.703377  L 117.409091 232.703377  L 114.872727 232.703377  L 112.336364 232.703377  L 109.8 232.703377  L 107.263636 232.703377  L 104.727273 232.703377  L 102.190909 232.703377  L 99.654545 232.703377  L 97.118182 232.703377  L 94.581818 232.703377  L 92.045455 232.703377  L 89.509091 232.703377  L 86.972727 232.703377  L 84.436364 232.703377  L 81.9 232.703377  L 79.363636 232.703377  L 76.827273 232.703377  L 74.290909 232.703377  L 71.754545 232.703377  L 69.218182 232.703377  z "
           style="fill:#2ca02c;fill-opacity:0.15;"
           id="path18" />
      </g>
      <g
         id="PolyCollection_4">
        <path
           clip-path="url(#pa7a2b3f54c)"
           d="M 69.218182 232.703377  L 69.218182 232.703377  L 71.754545 232.703377  L 74.290909 232.703377  L 76.827273 232.703377  L 79.363636 232.703377  L 81.9 232.703377  L 84.436364 232.703377  L 86.972727 232.703377  L 89.509091 232.703377  L 92.045455 232.703377  L 94.581818 232.703377  L 97.118182 232.703377  L 99.654545 232.703377  L 102.190909 232.703377  L 104.727273 232.703377  L 107.263636 232.703377  L 109.8 232.703377  L 112.336364 232.703377  L 114.872727 232.703377  L 117.409091 232.703377  L 119.945455 232.703377  L 122.481818 232.703377  L 125.018182 232.703377  L 127.554545 232.703377  L 130.090909 232.703377  L 132.627273 232.703377  L 135.163636 232.703377  L 137.7 232.703377  L 140.236364 232.703377  L 142.772727 206.347013  L 145.309091 179.990649  L 147.845455 153.634286  L 150.381818 125.395325  L 152.918182 99.038961  L 155.454545 72.682597  L 157.990909 44.443636  L 160.527273 44.443636  L 163.063636 44.443636  L 165.6 44.443636  L 168.136364 44.443636  L 170.672727 44.443636  L 173.209091 44.443636  L 175.745455 44.443636  L 178.281818 44.443636  L 180.818182 44.443636  L 183.354545 44.443636  L 185.890909 44.443636  L 188.427273 44.443636  L 190.963636 44.443636  L 193.5 76.447792  L 196.036364 108.451948  L 198.572727 138.573506  L 201.109091 170.577662  L 203.645455 202.581818  L 206.181818 232.703377  L 208.718182 232.703377  L 211.254545 232.703377  L 213.790909 232.703377  L 216.327273 232.703377  L 218.863636 232.703377  L 221.4 232.703377  L 223.936364 232.703377  L 226.472727 232.703377  L 229.009091 232.703377  L 231.545455 232.703377  L 234.081818 232.703377  L 236.618182 232.703377  L 239.154545 232.703377  L 241.690909 232.703377  L 244.227273 232.703377  L 246.763636 232.703377  L 249.3 232.703377  L 251.836364 232.703377  L 254.372727 232.703377  L 256.909091 232.703377  L 259.445455 232.703377  L 261.981818 232.703377  L 264.518182 232.703377  L 267.054545 232.703377  L 269.590909 232.703377  L 272.127273 232.703377  L 274.663636 232.703377  L 277.2 232.703377  L 279.736364 232.703377  L 282.272727 232.703377  L 284.809091 232.703377  L 287.345455 232.703377  L 289.881818 232.703377  L 292.418182 232.703377  L 294.954545 232.703377  L 297.490909 232.703377  L 300.027273 232.703377  L 302.563636 232.703377  L 305.1 232.703377  L 307.636364 232.703377  L 310.172727 232.703377  L 312.709091 232.703377  L 315.245455 232.703377  L 317.781818 232.703377  L 320.318182 232.703377  L 322.854545 232.703377  L 325.390909 232.703377  L 327.927273 232.703377  L 330.463636 232.703377  L 333 232.703377  L 335.536364 232.703377  L 338.072727 232.703377  L 340.609091 232.703377  L 343.145455 232.703377  L 345.681818 232.703377  L 348.218182 232.703377  L 350.754545 232.703377  L 353.290909 232.703377  L 355.827273 232.703377  L 358.363636 232.703377  L 360.9 232.703377  L 363.436364 232.703377  L 365.972727 232.703377  L 368.509091 232.703377  L 371.045455 232.703377  L 373.581818 232.703377  L 373.581818 232.703377  L 373.581818 232.703377  L 371.045455 232.703377  L 368.509091 232.703377  L 365.972727 232.703377  L 363.436364 232.703377  L 360.9 232.703377  L 358.363636 232.703377  L 355.827273 232.703377  L 353.290909 232.703377  L 350.754545 232.703377  L 348.218182 232.703377  L 345.681818 232.703377  L 343.145455 232.703377  L 340.609091 232.703377  L 338.072727 232.703377  L 335.536364 232.703377  L 333 232.703377  L 330.463636 232.703377  L 327.927273 232.703377  L 325.390909 232.703377  L 322.854545 232.703377  L 320.318182 232.703377  L 317.781818 232.703377  L 315.245455 232.703377  L 312.709091 232.703377  L 310.172727 232.703377  L 307.636364 232.703377  L 305.1 232.703377  L 302.563636 232.703377  L 300.027273 232.703377  L 297.490909 232.703377  L 294.954545 232.703377  L 292.418182 232.703377  L 289.881818 232.703377  L 287.345455 232.703377  L 284.809091 232.703377  L 282.272727 232.703377  L 279.736364 232.703377  L 277.2 232.703377  L 274.663636 232.703377  L 272.127273 232.703377  L 269.590909 232.703377  L 267.054545 232.703377  L 264.518182 232.703377  L 261.981818 232.703377  L 259.445455 232.703377  L 256.909091 232.703377  L 254.372727 232.703377  L 251.836364 232.703377  L 249.3 232.703377  L 246.763636 232.703377  L 244.227273 232.703377  L 241.690909 232.703377  L 239.154545 232.703377  L 236.618182 232.703377  L 234.081818 232.703377  L 231.545455 232.703377  L 229.009091 232.703377  L 226.472727 232.703377  L 223.936364 232.703377  L 221.4 232.703377  L 218.863636 232.703377  L 216.327273 232.703377  L 213.790909 232.703377  L 211.254545 232.703377  L 208.718182 232.703377  L 206.181818 232.703377  L 203.645455 232.703377  L 201.109091 232.703377  L 198.572727 232.703377  L 196.036364 232.703377  L 193.5 232.703377  L 190.963636 232.703377  L 188.427273 232.703377  L 185.890909 232.703377  L 183.354545 232.703377  L 180.818182 232.703377  L 178.281818 232.703377  L 175.745455 232.703377  L 173.209091 232.703377  L 170.672727 232.703377  L 168.136364 232.703377  L 165.6 232.703377  L 163.063636 232.703377  L 160.527273 232.703377  L 157.990909 232.703377  L 155.454545 232.703377  L 152.918182 232.703377  L 150.381818 232.703377  L 147.845455 232.703377  L 145.309091 232.703377  L 142.772727 232.703377  L 140.236364 232.703377  L 137.7 232.703377  L 135.163636 232.703377  L 132.627273 232.703377  L 130.090909 232.703377  L 127.554545 232.703377  L 125.018182 232.703377  L 122.481818 232.703377  L 119.945455 232.703377  L 117.409091 232.703377  L 114.872727 232.703377  L 112.336364 232.703377  L 109.8 232.703377  L 107.263636 232.703377  L 104.727273 232.703377  L 102.190909 232.703377  L 99.654545 232.703377  L 97.118182 232.703377  L 94.581818 232.703377  L 92.045455 232.703377  L 89.509091 232.703377  L 86.972727 232.703377  L 84.436364 232.703377  L 81.9 232.703377  L 79.363636 232.703377  L 76.827273 232.703377  L 74.290909 232.703377  L 71.754545 232.703377  L 69.218182 232.703377  z "
           style="fill:#d62728;fill-opacity:0.15;"
           id="path21" />
      </g>
      <g
         id="matplotlib.axis_1">
        <g
           id="xtick_1">
          <g
             id="line2d_1">
            <defs
               id="defs25">
              <path
                 d="M 0 0  L 0 3.5  "
                 id="mcaf312a4d9"
                 style="stroke:#000000;stroke-width:0.8;" />
            </defs>
            <g
               id="g29">
              <use
                 style="stroke:#000000;stroke-width:0.8;"
                 x="69.218182"
                 xlink:href="#mcaf312a4d9"
                 y="252"
                 id="use27" />
            </g>
          </g>
          <g
             id="text_1">
            <!-- 0 -->
            <defs
               id="defs33">
              <path
                 d="M 31.78125 66.40625  Q 24.171875 66.40625 20.328125 58.90625  Q 16.5 51.421875 16.5 36.375  Q 16.5 21.390625 20.328125 13.890625  Q 24.171875 6.390625 31.78125 6.390625  Q 39.453125 6.390625 43.28125 13.890625  Q 47.125 21.390625 47.125 36.375  Q 47.125 51.421875 43.28125 58.90625  Q 39.453125 66.40625 31.78125 66.40625  z M 31.78125 74.21875  Q 44.046875 74.21875 50.515625 64.515625  Q 56.984375 54.828125 56.984375 36.375  Q 56.984375 17.96875 50.515625 8.265625  Q 44.046875 -1.421875 31.78125 -1.421875  Q 19.53125 -1.421875 13.0625 8.265625  Q 6.59375 17.96875 6.59375 36.375  Q 6.59375 54.828125 13.0625 64.515625  Q 19.53125 74.21875 31.78125 74.21875  z "
                 id="DejaVuSans-48" />
            </defs>
            <g
               transform="translate(66.036932 266.598437)scale(0.1 -0.1)"
               id="g37">
              <use
                 xlink:href="#DejaVuSans-48"
                 id="use35" />
            </g>
          </g>
        </g>
        <g
           id="xtick_2">
          <g
             id="line2d_2">
            <g
               id="g43">
              <use
                 style="stroke:#000000;stroke-width:0.8;"
                 x="119.945455"
                 xlink:href="#mcaf312a4d9"
                 y="252"
                 id="use41" />
            </g>
          </g>
          <g
             id="text_2">
            <!-- 20 -->
            <defs
               id="defs47">
              <path
                 d="M 19.1875 8.296875  L 53.609375 8.296875  L 53.609375 0  L 7.328125 0  L 7.328125 8.296875  Q 12.9375 14.109375 22.625 23.890625  Q 32.328125 33.6875 34.8125 36.53125  Q 39.546875 41.84375 41.421875 45.53125  Q 43.3125 49.21875 43.3125 52.78125  Q 43.3125 58.59375 39.234375 62.25  Q 35.15625 65.921875 28.609375 65.921875  Q 23.96875 65.921875 18.8125 64.3125  Q 13.671875 62.703125 7.8125 59.421875  L 7.8125 69.390625  Q 13.765625 71.78125 18.9375 73  Q 24.125 74.21875 28.421875 74.21875  Q 39.75 74.21875 46.484375 68.546875  Q 53.21875 62.890625 53.21875 53.421875  Q 53.21875 48.921875 51.53125 44.890625  Q 49.859375 40.875 45.40625 35.40625  Q 44.1875 33.984375 37.640625 27.21875  Q 31.109375 20.453125 19.1875 8.296875  z "
                 id="DejaVuSans-50" />
            </defs>
            <g
               transform="translate(113.582955 266.598437)scale(0.1 -0.1)"
               id="g53">
              <use
                 xlink:href="#DejaVuSans-50"
                 id="use49" />
              <use
                 x="63.623047"
                 xlink:href="#DejaVuSans-48"
                 id="use51" />
            </g>
          </g>
        </g>
        <g
           id="xtick_3">
          <g
             id="line2d_3">
            <g
               id="g59">
              <use
                 style="stroke:#000000;stroke-width:0.8;"
                 x="170.672727"
                 xlink:href="#mcaf312a4d9"
                 y="252"
                 id="use57" />
            </g>
          </g>
          <g
             id="text_3">
            <!-- 40 -->
            <defs
               id="defs63">
              <path
                 d="M 37.796875 64.3125  L 12.890625 25.390625  L 37.796875 25.390625  z M 35.203125 72.90625  L 47.609375 72.90625  L 47.609375 25.390625  L 58.015625 25.390625  L 58.015625 17.1875  L 47.609375 17.1875  L 47.609375 0  L 37.796875 0  L 37.796875 17.1875  L 4.890625 17.1875  L 4.890625 26.703125  z "
                 id="DejaVuSans-52" />
            </defs>
            <g
               transform="translate(164.310227 266.598437)scale(0.1 -0.1)"
               id="g69">
              <use
                 xlink:href="#DejaVuSans-52"
                 id="use65" />
              <use
                 x="63.623047"
                 xlink:href="#DejaVuSans-48"
                 id="use67" />
            </g>
          </g>
        </g>
        <g
           id="xtick_4">
          <g
             id="line2d_4">
            <g
               id="g75">
              <use
                 style="stroke:#000000;stroke-width:0.8;"
                 x="221.4"
                 xlink:href="#mcaf312a4d9"
                 y="252"
                 id="use73" />
            </g>
          </g>
          <g
             id="text_4">
            <!-- 60 -->
            <defs
               id="defs79">
              <path
                 d="M 33.015625 40.375  Q 26.375 40.375 22.484375 35.828125  Q 18.609375 31.296875 18.609375 23.390625  Q 18.609375 15.53125 22.484375 10.953125  Q 26.375 6.390625 33.015625 6.390625  Q 39.65625 6.390625 43.53125 10.953125  Q 47.40625 15.53125 47.40625 23.390625  Q 47.40625 31.296875 43.53125 35.828125  Q 39.65625 40.375 33.015625 40.375  z M 52.59375 71.296875  L 52.59375 62.3125  Q 48.875 64.0625 45.09375 64.984375  Q 41.3125 65.921875 37.59375 65.921875  Q 27.828125 65.921875 22.671875 59.328125  Q 17.53125 52.734375 16.796875 39.40625  Q 19.671875 43.65625 24.015625 45.921875  Q 28.375 48.1875 33.59375 48.1875  Q 44.578125 48.1875 50.953125 41.515625  Q 57.328125 34.859375 57.328125 23.390625  Q 57.328125 12.15625 50.6875 5.359375  Q 44.046875 -1.421875 33.015625 -1.421875  Q 20.359375 -1.421875 13.671875 8.265625  Q 6.984375 17.96875 6.984375 36.375  Q 6.984375 53.65625 15.1875 63.9375  Q 23.390625 74.21875 37.203125 74.21875  Q 40.921875 74.21875 44.703125 73.484375  Q 48.484375 72.75 52.59375 71.296875  z "
                 id="DejaVuSans-54" />
            </defs>
            <g
               transform="translate(215.0375 266.598437)scale(0.1 -0.1)"
               id="g85">
              <use
                 xlink:href="#DejaVuSans-54"
                 id="use81" />
              <use
                 x="63.623047"
                 xlink:href="#DejaVuSans-48"
                 id="use83" />
            </g>
          </g>
        </g>
        <g
           id="xtick_5">
          <g
             id="line2d_5">
            <g
               id="g91">
              <use
                 style="stroke:#000000;stroke-width:0.8;"
                 x="272.127273"
                 xlink:href="#mcaf312a4d9"
                 y="252"
                 id="use89" />
            </g>
          </g>
          <g
             id="text_5">
            <!-- 80 -->
            <defs
               id="defs95">
              <path
                 d="M 31.78125 34.625  Q 24.75 34.625 20.71875 30.859375  Q 16.703125 27.09375 16.703125 20.515625  Q 16.703125 13.921875 20.71875 10.15625  Q 24.75 6.390625 31.78125 6.390625  Q 38.8125 6.390625 42.859375 10.171875  Q 46.921875 13.96875 46.921875 20.515625  Q 46.921875 27.09375 42.890625 30.859375  Q 38.875 34.625 31.78125 34.625  z M 21.921875 38.8125  Q 15.578125 40.375 12.03125 44.71875  Q 8.5 49.078125 8.5 55.328125  Q 8.5 64.0625 14.71875 69.140625  Q 20.953125 74.21875 31.78125 74.21875  Q 42.671875 74.21875 48.875 69.140625  Q 55.078125 64.0625 55.078125 55.328125  Q 55.078125 49.078125 51.53125 44.71875  Q 48 40.375 41.703125 38.8125  Q 48.828125 37.15625 52.796875 32.3125  Q 56.78125 27.484375 56.78125 20.515625  Q 56.78125 9.90625 50.3125 4.234375  Q 43.84375 -1.421875 31.78125 -1.421875  Q 19.734375 -1.421875 13.25 4.234375  Q 6.78125 9.90625 6.78125 20.515625  Q 6.78125 27.484375 10.78125 32.3125  Q 14.796875 37.15625 21.921875 38.8125  z M 18.3125 54.390625  Q 18.3125 48.734375 21.84375 45.5625  Q 25.390625 42.390625 31.78125 42.390625  Q 38.140625 42.390625 41.71875 45.5625  Q 45.3125 48.734375 45.3125 54.390625  Q 45.3125 60.0625 41.71875 63.234375  Q 38.140625 66.40625 31.78125 66.40625  Q 25.390625 66.40625 21.84375 63.234375  Q 18.3125 60.0625 18.3125 54.390625  z "
                 id="DejaVuSans-56" />
            </defs>
            <g
               transform="translate(265.764773 266.598437)scale(0.1 -0.1)"
               id="g101">
              <use
                 xlink:href="#DejaVuSans-56"
                 id="use97" />
              <use
                 x="63.623047"
                 xlink:href="#DejaVuSans-48"
                 id="use99" />
            </g>
          </g>
        </g>
        <g
           id="xtick_6">
          <g
             id="line2d_6">
            <g
               id="g107">
              <use
                 style="stroke:#000000;stroke-width:0.8;"
                 x="322.854545"
                 xlink:href="#mcaf312a4d9"
                 y="252"
                 id="use105" />
            </g>
          </g>
          <g
             id="text_6">
            <!-- 100 -->
            <defs
               id="defs111">
              <path
                 d="M 12.40625 8.296875  L 28.515625 8.296875  L 28.515625 63.921875  L 10.984375 60.40625  L 10.984375 69.390625  L 28.421875 72.90625  L 38.28125 72.90625  L 38.28125 8.296875  L 54.390625 8.296875  L 54.390625 0  L 12.40625 0  z "
                 id="DejaVuSans-49" />
            </defs>
            <g
               transform="translate(313.310795 266.598437)scale(0.1 -0.1)"
               id="g119">
              <use
                 xlink:href="#DejaVuSans-49"
                 id="use113" />
              <use
                 x="63.623047"
                 xlink:href="#DejaVuSans-48"
                 id="use115" />
              <use
                 x="127.246094"
                 xlink:href="#DejaVuSans-48"
                 id="use117" />
            </g>
          </g>
        </g>
        <g
           id="xtick_7">
          <g
             id="line2d_7">
            <g
               id="g125">
              <use
                 style="stroke:#000000;stroke-width:0.8;"
                 x="373.581818"
                 xlink:href="#mcaf312a4d9"
                 y="252"
                 id="use123" />
            </g>
          </g>
          <g
             id="text_7">
            <!-- 120 -->
            <g
               transform="translate(364.038068 266.598437)scale(0.1 -0.1)"
               id="g134">
              <use
                 xlink:href="#DejaVuSans-49"
                 id="use128" />
              <use
                 x="63.623047"
                 xlink:href="#DejaVuSans-50"
                 id="use130" />
              <use
                 x="127.246094"
                 xlink:href="#DejaVuSans-48"
                 id="use132" />
            </g>
          </g>
        </g>
        <g
           id="text_8">
          <!-- Midi Note -->
          <defs
             id="defs146">
            <path
               d="M 9.8125 72.90625  L 24.515625 72.90625  L 43.109375 23.296875  L 61.8125 72.90625  L 76.515625 72.90625  L 76.515625 0  L 66.890625 0  L 66.890625 64.015625  L 48.09375 14.015625  L 38.1875 14.015625  L 19.390625 64.015625  L 19.390625 0  L 9.8125 0  z "
               id="DejaVuSans-77" />
            <path
               d="M 9.421875 54.6875  L 18.40625 54.6875  L 18.40625 0  L 9.421875 0  z M 9.421875 75.984375  L 18.40625 75.984375  L 18.40625 64.59375  L 9.421875 64.59375  z "
               id="DejaVuSans-105" />
            <path
               d="M 45.40625 46.390625  L 45.40625 75.984375  L 54.390625 75.984375  L 54.390625 0  L 45.40625 0  L 45.40625 8.203125  Q 42.578125 3.328125 38.25 0.953125  Q 33.9375 -1.421875 27.875 -1.421875  Q 17.96875 -1.421875 11.734375 6.484375  Q 5.515625 14.40625 5.515625 27.296875  Q 5.515625 40.1875 11.734375 48.09375  Q 17.96875 56 27.875 56  Q 33.9375 56 38.25 53.625  Q 42.578125 51.265625 45.40625 46.390625  z M 14.796875 27.296875  Q 14.796875 17.390625 18.875 11.75  Q 22.953125 6.109375 30.078125 6.109375  Q 37.203125 6.109375 41.296875 11.75  Q 45.40625 17.390625 45.40625 27.296875  Q 45.40625 37.203125 41.296875 42.84375  Q 37.203125 48.484375 30.078125 48.484375  Q 22.953125 48.484375 18.875 42.84375  Q 14.796875 37.203125 14.796875 27.296875  z "
               id="DejaVuSans-100" />
            <path
               id="DejaVuSans-32" />
            <path
               d="M 9.8125 72.90625  L 23.09375 72.90625  L 55.421875 11.921875  L 55.421875 72.90625  L 64.984375 72.90625  L 64.984375 0  L 51.703125 0  L 19.390625 60.984375  L 19.390625 0  L 9.8125 0  z "
               id="DejaVuSans-78" />
            <path
               d="M 30.609375 48.390625  Q 23.390625 48.390625 19.1875 42.75  Q 14.984375 37.109375 14.984375 27.296875  Q 14.984375 17.484375 19.15625 11.84375  Q 23.34375 6.203125 30.609375 6.203125  Q 37.796875 6.203125 41.984375 11.859375  Q 46.1875 17.53125 46.1875 27.296875  Q 46.1875 37.015625 41.984375 42.703125  Q 37.796875 48.390625 30.609375 48.390625  z M 30.609375 56  Q 42.328125 56 49.015625 48.375  Q 55.71875 40.765625 55.71875 27.296875  Q 55.71875 13.875 49.015625 6.21875  Q 42.328125 -1.421875 30.609375 -1.421875  Q 18.84375 -1.421875 12.171875 6.21875  Q 5.515625 13.875 5.515625 27.296875  Q 5.515625 40.765625 12.171875 48.375  Q 18.84375 56 30.609375 56  z "
               id="DejaVuSans-111" />
            <path
               d="M 18.3125 70.21875  L 18.3125 54.6875  L 36.8125 54.6875  L 36.8125 47.703125  L 18.3125 47.703125  L 18.3125 18.015625  Q 18.3125 11.328125 20.140625 9.421875  Q 21.96875 7.515625 27.59375 7.515625  L 36.8125 7.515625  L 36.8125 0  L 27.59375 0  Q 17.1875 0 13.234375 3.875  Q 9.28125 7.765625 9.28125 18.015625  L 9.28125 47.703125  L 2.6875 47.703125  L 2.6875 54.6875  L 9.28125 54.6875  L 9.28125 70.21875  z "
               id="DejaVuSans-116" />
            <path
               d="M 56.203125 29.59375  L 56.203125 25.203125  L 14.890625 25.203125  Q 15.484375 15.921875 20.484375 11.0625  Q 25.484375 6.203125 34.421875 6.203125  Q 39.59375 6.203125 44.453125 7.46875  Q 49.3125 8.734375 54.109375 11.28125  L 54.109375 2.78125  Q 49.265625 0.734375 44.1875 -0.34375  Q 39.109375 -1.421875 33.890625 -1.421875  Q 20.796875 -1.421875 13.15625 6.1875  Q 5.515625 13.8125 5.515625 26.8125  Q 5.515625 40.234375 12.765625 48.109375  Q 20.015625 56 32.328125 56  Q 43.359375 56 49.78125 48.890625  Q 56.203125 41.796875 56.203125 29.59375  z M 47.21875 32.234375  Q 47.125 39.59375 43.09375 43.984375  Q 39.0625 48.390625 32.421875 48.390625  Q 24.90625 48.390625 20.390625 44.140625  Q 15.875 39.890625 15.1875 32.171875  z "
               id="DejaVuSans-101" />
          </defs>
          <g
             transform="translate(197.707812 280.276563)scale(0.1 -0.1)"
             id="g166">
            <use
               xlink:href="#DejaVuSans-77"
               id="use148" />
            <use
               x="86.279297"
               xlink:href="#DejaVuSans-105"
               id="use150" />
            <use
               x="114.0625"
               xlink:href="#DejaVuSans-100"
               id="use152" />
            <use
               x="177.539062"
               xlink:href="#DejaVuSans-105"
               id="use154" />
            <use
               x="205.322266"
               xlink:href="#DejaVuSans-32"
               id="use156" />
            <use
               x="237.109375"
               xlink:href="#DejaVuSans-78"
               id="use158" />
            <use
               x="311.914062"
               xlink:href="#DejaVuSans-111"
               id="use160" />
            <use
               x="373.095703"
               xlink:href="#DejaVuSans-116"
               id="use162" />
            <use
               x="412.304688"
               xlink:href="#DejaVuSans-101"
               id="use164" />
          </g>
        </g>
      </g>
      <g
         id="matplotlib.axis_2">
        <g
           id="ytick_1">
          <g
             id="line2d_8">
            <defs
               id="defs171">
              <path
                 d="M 0 0  L -3.5 0  "
                 id="mf6dba20360"
                 style="stroke:#000000;stroke-width:0.8;" />
            </defs>
            <g
               id="g175">
              <use
                 style="stroke:#000000;stroke-width:0.8;"
                 x="54"
                 xlink:href="#mf6dba20360"
                 y="232.703377"
                 id="use173" />
            </g>
          </g>
          <g
             id="text_9">
            <!-- 0 -->
            <g
               transform="translate(40.6375 236.502595)scale(0.1 -0.1)"
               id="g180">
              <use
                 xlink:href="#DejaVuSans-48"
                 id="use178" />
            </g>
          </g>
        </g>
        <g
           id="ytick_2">
          <g
             id="line2d_9">
            <g
               id="g186">
              <use
                 style="stroke:#000000;stroke-width:0.8;"
                 x="54"
                 xlink:href="#mf6dba20360"
                 y="195.051429"
                 id="use184" />
            </g>
          </g>
          <g
             id="text_10">
            <!-- 20 -->
            <g
               transform="translate(34.275 198.850647)scale(0.1 -0.1)"
               id="g193">
              <use
                 xlink:href="#DejaVuSans-50"
                 id="use189" />
              <use
                 x="63.623047"
                 xlink:href="#DejaVuSans-48"
                 id="use191" />
            </g>
          </g>
        </g>
        <g
           id="ytick_3">
          <g
             id="line2d_10">
            <g
               id="g199">
              <use
                 style="stroke:#000000;stroke-width:0.8;"
                 x="54"
                 xlink:href="#mf6dba20360"
                 y="157.399481"
                 id="use197" />
            </g>
          </g>
          <g
             id="text_11">
            <!-- 40 -->
            <g
               transform="translate(34.275 161.198699)scale(0.1 -0.1)"
               id="g206">
              <use
                 xlink:href="#DejaVuSans-52"
                 id="use202" />
              <use
                 x="63.623047"
                 xlink:href="#DejaVuSans-48"
                 id="use204" />
            </g>
          </g>
        </g>
        <g
           id="ytick_4">
          <g
             id="line2d_11">
            <g
               id="g212">
              <use
                 style="stroke:#000000;stroke-width:0.8;"
                 x="54"
                 xlink:href="#mf6dba20360"
                 y="119.747532"
                 id="use210" />
            </g>
          </g>
          <g
             id="text_12">
            <!-- 60 -->
            <g
               transform="translate(34.275 123.546751)scale(0.1 -0.1)"
               id="g219">
              <use
                 xlink:href="#DejaVuSans-54"
                 id="use215" />
              <use
                 x="63.623047"
                 xlink:href="#DejaVuSans-48"
                 id="use217" />
            </g>
          </g>
        </g>
        <g
           id="ytick_5">
          <g
             id="line2d_12">
            <g
               id="g225">
              <use
                 style="stroke:#000000;stroke-width:0.8;"
                 x="54"
                 xlink:href="#mf6dba20360"
                 y="82.095584"
                 id="use223" />
            </g>
          </g>
          <g
             id="text_13">
            <!-- 80 -->
            <g
               transform="translate(34.275 85.894803)scale(0.1 -0.1)"
               id="g232">
              <use
                 xlink:href="#DejaVuSans-56"
                 id="use228" />
              <use
                 x="63.623047"
                 xlink:href="#DejaVuSans-48"
                 id="use230" />
            </g>
          </g>
        </g>
        <g
           id="ytick_6">
          <g
             id="line2d_13">
            <g
               id="g238">
              <use
                 style="stroke:#000000;stroke-width:0.8;"
                 x="54"
                 xlink:href="#mf6dba20360"
                 y="44.443636"
                 id="use236" />
            </g>
          </g>
          <g
             id="text_14">
            <!-- 100 -->
            <g
               transform="translate(27.9125 48.242855)scale(0.1 -0.1)"
               id="g247">
              <use
                 xlink:href="#DejaVuSans-49"
                 id="use241" />
              <use
                 x="63.623047"
                 xlink:href="#DejaVuSans-48"
                 id="use243" />
              <use
                 x="127.246094"
                 xlink:href="#DejaVuSans-48"
                 id="use245" />
            </g>
          </g>
        </g>
        <g
           id="text_15">
          <!-- Acceptance -->
          <defs
             id="defs256">
            <path
               d="M 34.1875 63.1875  L 20.796875 26.90625  L 47.609375 26.90625  z M 28.609375 72.90625  L 39.796875 72.90625  L 67.578125 0  L 57.328125 0  L 50.6875 18.703125  L 17.828125 18.703125  L 11.1875 0  L 0.78125 0  z "
               id="DejaVuSans-65" />
            <path
               d="M 48.78125 52.59375  L 48.78125 44.1875  Q 44.96875 46.296875 41.140625 47.34375  Q 37.3125 48.390625 33.40625 48.390625  Q 24.65625 48.390625 19.8125 42.84375  Q 14.984375 37.3125 14.984375 27.296875  Q 14.984375 17.28125 19.8125 11.734375  Q 24.65625 6.203125 33.40625 6.203125  Q 37.3125 6.203125 41.140625 7.25  Q 44.96875 8.296875 48.78125 10.40625  L 48.78125 2.09375  Q 45.015625 0.34375 40.984375 -0.53125  Q 36.96875 -1.421875 32.421875 -1.421875  Q 20.0625 -1.421875 12.78125 6.34375  Q 5.515625 14.109375 5.515625 27.296875  Q 5.515625 40.671875 12.859375 48.328125  Q 20.21875 56 33.015625 56  Q 37.15625 56 41.109375 55.140625  Q 45.0625 54.296875 48.78125 52.59375  z "
               id="DejaVuSans-99" />
            <path
               d="M 18.109375 8.203125  L 18.109375 -20.796875  L 9.078125 -20.796875  L 9.078125 54.6875  L 18.109375 54.6875  L 18.109375 46.390625  Q 20.953125 51.265625 25.265625 53.625  Q 29.59375 56 35.59375 56  Q 45.5625 56 51.78125 48.09375  Q 58.015625 40.1875 58.015625 27.296875  Q 58.015625 14.40625 51.78125 6.484375  Q 45.5625 -1.421875 35.59375 -1.421875  Q 29.59375 -1.421875 25.265625 0.953125  Q 20.953125 3.328125 18.109375 8.203125  z M 48.6875 27.296875  Q 48.6875 37.203125 44.609375 42.84375  Q 40.53125 48.484375 33.40625 48.484375  Q 26.265625 48.484375 22.1875 42.84375  Q 18.109375 37.203125 18.109375 27.296875  Q 18.109375 17.390625 22.1875 11.75  Q 26.265625 6.109375 33.40625 6.109375  Q 40.53125 6.109375 44.609375 11.75  Q 48.6875 17.390625 48.6875 27.296875  z "
               id="DejaVuSans-112" />
            <path
               d="M 34.28125 27.484375  Q 23.390625 27.484375 19.1875 25  Q 14.984375 22.515625 14.984375 16.5  Q 14.984375 11.71875 18.140625 8.90625  Q 21.296875 6.109375 26.703125 6.109375  Q 34.1875 6.109375 38.703125 11.40625  Q 43.21875 16.703125 43.21875 25.484375  L 43.21875 27.484375  z M 52.203125 31.203125  L 52.203125 0  L 43.21875 0  L 43.21875 8.296875  Q 40.140625 3.328125 35.546875 0.953125  Q 30.953125 -1.421875 24.3125 -1.421875  Q 15.921875 -1.421875 10.953125 3.296875  Q 6 8.015625 6 15.921875  Q 6 25.140625 12.171875 29.828125  Q 18.359375 34.515625 30.609375 34.515625  L 43.21875 34.515625  L 43.21875 35.40625  Q 43.21875 41.609375 39.140625 45  Q 35.0625 48.390625 27.6875 48.390625  Q 23 48.390625 18.546875 47.265625  Q 14.109375 46.140625 10.015625 43.890625  L 10.015625 52.203125  Q 14.9375 54.109375 19.578125 55.046875  Q 24.21875 56 28.609375 56  Q 40.484375 56 46.34375 49.84375  Q 52.203125 43.703125 52.203125 31.203125  z "
               id="DejaVuSans-97" />
            <path
               d="M 54.890625 33.015625  L 54.890625 0  L 45.90625 0  L 45.90625 32.71875  Q 45.90625 40.484375 42.875 44.328125  Q 39.84375 48.1875 33.796875 48.1875  Q 26.515625 48.1875 22.3125 43.546875  Q 18.109375 38.921875 18.109375 30.90625  L 18.109375 0  L 9.078125 0  L 9.078125 54.6875  L 18.109375 54.6875  L 18.109375 46.1875  Q 21.34375 51.125 25.703125 53.5625  Q 30.078125 56 35.796875 56  Q 45.21875 56 50.046875 50.171875  Q 54.890625 44.34375 54.890625 33.015625  z "
               id="DejaVuSans-110" />
          </defs>
          <g
             transform="translate(21.832812 172.4675)rotate(-90)scale(0.1 -0.1)"
             id="g278">
            <use
               xlink:href="#DejaVuSans-65"
               id="use258" />
            <use
               x="68.392578"
               xlink:href="#DejaVuSans-99"
               id="use260" />
            <use
               x="123.373047"
               xlink:href="#DejaVuSans-99"
               id="use262" />
            <use
               x="178.353516"
               xlink:href="#DejaVuSans-101"
               id="use264" />
            <use
               x="239.876953"
               xlink:href="#DejaVuSans-112"
               id="use266" />
            <use
               x="303.353516"
               xlink:href="#DejaVuSans-116"
               id="use268" />
            <use
               x="342.5625"
               xlink:href="#DejaVuSans-97"
               id="use270" />
            <use
               x="403.841797"
               xlink:href="#DejaVuSans-110"
               id="use272" />
            <use
               x="467.220703"
               xlink:href="#DejaVuSans-99"
               id="use274" />
            <use
               x="522.201172"
               xlink:href="#DejaVuSans-101"
               id="use276" />
          </g>
        </g>
      </g>
      <g
         id="LineCollection_1">
        <path
           clip-path="url(#pa7a2b3f54c)"
           d="M 69.218182 242.116364  L 69.218182 223.29039  "
           style="fill:none;stroke:#808080;stroke-width:1.5;"
           id="path282" />
        <path
           clip-path="url(#pa7a2b3f54c)"
           d="M 99.654545 242.116364  L 99.654545 223.29039  "
           style="fill:none;stroke:#808080;stroke-width:1.5;"
           id="path284" />
        <path
           clip-path="url(#pa7a2b3f54c)"
           d="M 130.090909 242.116364  L 130.090909 223.29039  "
           style="fill:none;stroke:#808080;stroke-width:1.5;"
           id="path286" />
        <path
           clip-path="url(#pa7a2b3f54c)"
           d="M 160.527273 242.116364  L 160.527273 223.29039  "
           style="fill:none;stroke:#808080;stroke-width:1.5;"
           id="path288" />
        <path
           clip-path="url(#pa7a2b3f54c)"
           d="M 190.963636 242.116364  L 190.963636 223.29039  "
           style="fill:none;stroke:#808080;stroke-width:1.5;"
           id="path290" />
        <path
           clip-path="url(#pa7a2b3f54c)"
           d="M 221.4 242.116364  L 221.4 223.29039  "
           style="fill:none;stroke:#808080;stroke-width:1.5;"
           id="path292" />
        <path
           clip-path="url(#pa7a2b3f54c)"
           d="M 251.836364 242.116364  L 251.836364 223.29039  "
           style="fill:none;stroke:#808080;stroke-width:1.5;"
           id="path294" />
        <path
           clip-path="url(#pa7a2b3f54c)"
           d="M 282.272727 242.116364  L 282.272727 223.29039  "
           style="fill:none;stroke:#808080;stroke-width:1.5;"
           id="path296" />
        <path
           clip-path="url(#pa7a2b3f54c)"
           d="M 312.709091 242.116364  L 312.709091 223.29039  "
           style="fill:none;stroke:#808080;stroke-width:1.5;"
           id="path298" />
        <path
           clip-path="url(#pa7a2b3f54c)"
           d="M 343.145455 242.116364  L 343.145455 223.29039  "
           style="fill:none;stroke:#808080;stroke-width:1.5;"
           id="path300" />
      </g>
      <g
         id="line2d_14">
        <path
           clip-path="url(#pa7a2b3f54c)"
           d="M 69.218182 232.703377  L 71.754545 232.703377  L 74.290909 232.703377  L 76.827273 232.703377  L 79.363636 232.703377  L 81.9 232.703377  L 84.436364 232.703377  L 86.972727 232.703377  L 89.509091 232.703377  L 92.045455 232.703377  L 94.581818 232.703377  L 97.118182 232.703377  L 99.654545 232.703377  L 102.190909 232.703377  L 104.727273 232.703377  L 107.263636 232.703377  L 109.8 232.703377  L 112.336364 232.703377  L 114.872727 232.703377  L 117.409091 232.703377  L 119.945455 232.703377  L 122.481818 232.703377  L 125.018182 232.703377  L 127.554545 232.703377  L 130.090909 232.703377  L 132.627273 232.703377  L 135.163636 232.703377  L 137.7 232.703377  L 140.236364 232.703377  L 142.772727 232.703377  L 145.309091 232.703377  L 147.845455 232.703377  L 150.381818 232.703377  L 152.918182 232.703377  L 155.454545 232.703377  L 157.990909 232.703377  L 160.527273 232.703377  L 163.063636 232.703377  L 165.6 232.703377  L 168.136364 232.703377  L 170.672727 232.703377  L 173.209091 232.703377  L 175.745455 232.703377  L 178.281818 232.703377  L 180.818182 232.703377  L 183.354545 232.703377  L 185.890909 232.703377  L 188.427273 232.703377  L 190.963636 232.703377  L 193.5 232.703377  L 196.036364 232.703377  L 198.572727 232.703377  L 201.109091 232.703377  L 203.645455 232.703377  L 206.181818 232.703377  L 208.718182 232.703377  L 211.254545 219.525195  L 213.790909 204.464416  L 216.327273 189.403636  L 218.863636 176.225455  L 221.4 161.164675  L 223.936364 146.103896  L 226.472727 132.925714  L 229.009091 117.864935  L 231.545455 102.804156  L 234.081818 89.625974  L 236.618182 74.565195  L 239.154545 59.504416  L 241.690909 44.443636  L 244.227273 44.443636  L 246.763636 44.443636  L 249.3 44.443636  L 251.836364 44.443636  L 254.372727 44.443636  L 256.909091 44.443636  L 259.445455 44.443636  L 261.981818 44.443636  L 264.518182 44.443636  L 267.054545 44.443636  L 269.590909 44.443636  L 272.127273 44.443636  L 274.663636 44.443636  L 277.2 44.443636  L 279.736364 44.443636  L 282.272727 44.443636  L 284.809091 76.447792  L 287.345455 108.451948  L 289.881818 138.573506  L 292.418182 170.577662  L 294.954545 202.581818  L 297.490909 232.703377  L 300.027273 232.703377  L 302.563636 232.703377  L 305.1 232.703377  L 307.636364 232.703377  L 310.172727 232.703377  L 312.709091 232.703377  L 315.245455 232.703377  L 317.781818 232.703377  L 320.318182 232.703377  L 322.854545 232.703377  L 325.390909 232.703377  L 327.927273 232.703377  L 330.463636 232.703377  L 333 232.703377  L 335.536364 232.703377  L 338.072727 232.703377  L 340.609091 232.703377  L 343.145455 232.703377  L 345.681818 232.703377  L 348.218182 232.703377  L 350.754545 232.703377  L 353.290909 232.703377  L 355.827273 232.703377  L 358.363636 232.703377  L 360.9 232.703377  L 363.436364 232.703377  L 365.972727 232.703377  L 368.509091 232.703377  L 371.045455 232.703377  L 373.581818 232.703377  "
           style="fill:none;stroke:#1f77b4;stroke-linecap:square;stroke-width:4;"
           id="path303" />
      </g>
      <g
         id="line2d_15">
        <path
           clip-path="url(#pa7a2b3f54c)"
           d="M 69.218182 232.703377  L 71.754545 232.703377  L 74.290909 232.703377  L 76.827273 232.703377  L 79.363636 232.703377  L 81.9 232.703377  L 84.436364 232.703377  L 86.972727 232.703377  L 89.509091 232.703377  L 92.045455 232.703377  L 94.581818 232.703377  L 97.118182 232.703377  L 99.654545 232.703377  L 102.190909 232.703377  L 104.727273 232.703377  L 107.263636 232.703377  L 109.8 232.703377  L 112.336364 232.703377  L 114.872727 232.703377  L 117.409091 232.703377  L 119.945455 232.703377  L 122.481818 232.703377  L 125.018182 232.703377  L 127.554545 232.703377  L 130.090909 232.703377  L 132.627273 232.703377  L 135.163636 232.703377  L 137.7 232.703377  L 140.236364 232.703377  L 142.772727 232.703377  L 145.309091 232.703377  L 147.845455 232.703377  L 150.381818 232.703377  L 152.918182 232.703377  L 155.454545 232.703377  L 157.990909 232.703377  L 160.527273 232.703377  L 163.063636 232.703377  L 165.6 232.703377  L 168.136364 232.703377  L 170.672727 232.703377  L 173.209091 232.703377  L 175.745455 232.703377  L 178.281818 232.703377  L 180.818182 232.703377  L 183.354545 232.703377  L 185.890909 232.703377  L 188.427273 232.703377  L 190.963636 232.703377  L 193.5 219.525195  L 196.036364 204.464416  L 198.572727 189.403636  L 201.109091 176.225455  L 203.645455 161.164675  L 206.181818 146.103896  L 208.718182 132.925714  L 211.254545 117.864935  L 213.790909 102.804156  L 216.327273 89.625974  L 218.863636 74.565195  L 221.4 59.504416  L 223.936364 44.443636  L 226.472727 44.443636  L 229.009091 44.443636  L 231.545455 44.443636  L 234.081818 44.443636  L 236.618182 44.443636  L 239.154545 44.443636  L 241.690909 44.443636  L 244.227273 44.443636  L 246.763636 44.443636  L 249.3 44.443636  L 251.836364 44.443636  L 254.372727 44.443636  L 256.909091 44.443636  L 259.445455 44.443636  L 261.981818 44.443636  L 264.518182 68.917403  L 267.054545 91.508571  L 269.590909 115.982338  L 272.127273 138.573506  L 274.663636 163.047273  L 277.2 185.638442  L 279.736364 210.112208  L 282.272727 232.703377  L 284.809091 232.703377  L 287.345455 232.703377  L 289.881818 232.703377  L 292.418182 232.703377  L 294.954545 232.703377  L 297.490909 232.703377  L 300.027273 232.703377  L 302.563636 232.703377  L 305.1 232.703377  L 307.636364 232.703377  L 310.172727 232.703377  L 312.709091 232.703377  L 315.245455 232.703377  L 317.781818 232.703377  L 320.318182 232.703377  L 322.854545 232.703377  L 325.390909 232.703377  L 327.927273 232.703377  L 330.463636 232.703377  L 333 232.703377  L 335.536364 232.703377  L 338.072727 232.703377  L 340.609091 232.703377  L 343.145455 232.703377  L 345.681818 232.703377  L 348.218182 232.703377  L 350.754545 232.703377  L 353.290909 232.703377  L 355.827273 232.703377  L 358.363636 232.703377  L 360.9 232.703377  L 363.436364 232.703377  L 365.972727 232.703377  L 368.509091 232.703377  L 371.045455 232.703377  L 373.581818 232.703377  "
           style="fill:none;stroke:#ff7f0e;stroke-linecap:square;stroke-width:4;"
           id="path306" />
      </g>
      <g
         id="line2d_16">
        <path
           clip-path="url(#pa7a2b3f54c)"
           d="M 69.218182 232.703377  L 71.754545 232.703377  L 74.290909 232.703377  L 76.827273 232.703377  L 79.363636 232.703377  L 81.9 232.703377  L 84.436364 232.703377  L 86.972727 232.703377  L 89.509091 232.703377  L 92.045455 232.703377  L 94.581818 232.703377  L 97.118182 232.703377  L 99.654545 232.703377  L 102.190909 232.703377  L 104.727273 232.703377  L 107.263636 232.703377  L 109.8 232.703377  L 112.336364 232.703377  L 114.872727 232.703377  L 117.409091 232.703377  L 119.945455 232.703377  L 122.481818 232.703377  L 125.018182 232.703377  L 127.554545 232.703377  L 130.090909 232.703377  L 132.627273 232.703377  L 135.163636 232.703377  L 137.7 232.703377  L 140.236364 232.703377  L 142.772727 232.703377  L 145.309091 232.703377  L 147.845455 232.703377  L 150.381818 232.703377  L 152.918182 232.703377  L 155.454545 232.703377  L 157.990909 232.703377  L 160.527273 232.703377  L 163.063636 215.76  L 165.6 198.816623  L 168.136364 181.873247  L 170.672727 164.92987  L 173.209091 147.986494  L 175.745455 131.043117  L 178.281818 114.09974  L 180.818182 97.156364  L 183.354545 80.212987  L 185.890909 63.26961  L 188.427273 44.443636  L 190.963636 44.443636  L 193.5 44.443636  L 196.036364 44.443636  L 198.572727 44.443636  L 201.109091 44.443636  L 203.645455 44.443636  L 206.181818 44.443636  L 208.718182 44.443636  L 211.254545 44.443636  L 213.790909 44.443636  L 216.327273 44.443636  L 218.863636 44.443636  L 221.4 44.443636  L 223.936364 44.443636  L 226.472727 44.443636  L 229.009091 44.443636  L 231.545455 82.095584  L 234.081818 119.747532  L 236.618182 157.399481  L 239.154545 195.051429  L 241.690909 232.703377  L 244.227273 232.703377  L 246.763636 232.703377  L 249.3 232.703377  L 251.836364 232.703377  L 254.372727 232.703377  L 256.909091 232.703377  L 259.445455 232.703377  L 261.981818 232.703377  L 264.518182 232.703377  L 267.054545 232.703377  L 269.590909 232.703377  L 272.127273 232.703377  L 274.663636 232.703377  L 277.2 232.703377  L 279.736364 232.703377  L 282.272727 232.703377  L 284.809091 232.703377  L 287.345455 232.703377  L 289.881818 232.703377  L 292.418182 232.703377  L 294.954545 232.703377  L 297.490909 232.703377  L 300.027273 232.703377  L 302.563636 232.703377  L 305.1 232.703377  L 307.636364 232.703377  L 310.172727 232.703377  L 312.709091 232.703377  L 315.245455 232.703377  L 317.781818 232.703377  L 320.318182 232.703377  L 322.854545 232.703377  L 325.390909 232.703377  L 327.927273 232.703377  L 330.463636 232.703377  L 333 232.703377  L 335.536364 232.703377  L 338.072727 232.703377  L 340.609091 232.703377  L 343.145455 232.703377  L 345.681818 232.703377  L 348.218182 232.703377  L 350.754545 232.703377  L 353.290909 232.703377  L 355.827273 232.703377  L 358.363636 232.703377  L 360.9 232.703377  L 363.436364 232.703377  L 365.972727 232.703377  L 368.509091 232.703377  L 371.045455 232.703377  L 373.581818 232.703377  "
           style="fill:none;stroke:#2ca02c;stroke-linecap:square;stroke-width:4;"
           id="path309" />
      </g>
      <g
         id="line2d_17">
        <path
           clip-path="url(#pa7a2b3f54c)"
           d="M 69.218182 232.703377  L 71.754545 232.703377  L 74.290909 232.703377  L 76.827273 232.703377  L 79.363636 232.703377  L 81.9 232.703377  L 84.436364 232.703377  L 86.972727 232.703377  L 89.509091 232.703377  L 92.045455 232.703377  L 94.581818 232.703377  L 97.118182 232.703377  L 99.654545 232.703377  L 102.190909 232.703377  L 104.727273 232.703377  L 107.263636 232.703377  L 109.8 232.703377  L 112.336364 232.703377  L 114.872727 232.703377  L 117.409091 232.703377  L 119.945455 232.703377  L 122.481818 232.703377  L 125.018182 232.703377  L 127.554545 232.703377  L 130.090909 232.703377  L 132.627273 232.703377  L 135.163636 232.703377  L 137.7 232.703377  L 140.236364 232.703377  L 142.772727 206.347013  L 145.309091 179.990649  L 147.845455 153.634286  L 150.381818 125.395325  L 152.918182 99.038961  L 155.454545 72.682597  L 157.990909 44.443636  L 160.527273 44.443636  L 163.063636 44.443636  L 165.6 44.443636  L 168.136364 44.443636  L 170.672727 44.443636  L 173.209091 44.443636  L 175.745455 44.443636  L 178.281818 44.443636  L 180.818182 44.443636  L 183.354545 44.443636  L 185.890909 44.443636  L 188.427273 44.443636  L 190.963636 44.443636  L 193.5 76.447792  L 196.036364 108.451948  L 198.572727 138.573506  L 201.109091 170.577662  L 203.645455 202.581818  L 206.181818 232.703377  L 208.718182 232.703377  L 211.254545 232.703377  L 213.790909 232.703377  L 216.327273 232.703377  L 218.863636 232.703377  L 221.4 232.703377  L 223.936364 232.703377  L 226.472727 232.703377  L 229.009091 232.703377  L 231.545455 232.703377  L 234.081818 232.703377  L 236.618182 232.703377  L 239.154545 232.703377  L 241.690909 232.703377  L 244.227273 232.703377  L 246.763636 232.703377  L 249.3 232.703377  L 251.836364 232.703377  L 254.372727 232.703377  L 256.909091 232.703377  L 259.445455 232.703377  L 261.981818 232.703377  L 264.518182 232.703377  L 267.054545 232.703377  L 269.590909 232.703377  L 272.127273 232.703377  L 274.663636 232.703377  L 277.2 232.703377  L 279.736364 232.703377  L 282.272727 232.703377  L 284.809091 232.703377  L 287.345455 232.703377  L 289.881818 232.703377  L 292.418182 232.703377  L 294.954545 232.703377  L 297.490909 232.703377  L 300.027273 232.703377  L 302.563636 232.703377  L 305.1 232.703377  L 307.636364 232.703377  L 310.172727 232.703377  L 312.709091 232.703377  L 315.245455 232.703377  L 317.781818 232.703377  L 320.318182 232.703377  L 322.854545 232.703377  L 325.390909 232.703377  L 327.927273 232.703377  L 330.463636 232.703377  L 333 232.703377  L 335.536364 232.703377  L 338.072727 232.703377  L 340.609091 232.703377  L 343.145455 232.703377  L 345.681818 232.703377  L 348.218182 232.703377  L 350.754545 232.703377  L 353.290909 232.703377  L 355.827273 232.703377  L 358.363636 232.703377  L 360.9 232.703377  L 363.436364 232.703377  L 365.972727 232.703377  L 368.509091 232.703377  L 371.045455 232.703377  L 373.581818 232.703377  "
           style="fill:none;stroke:#d62728;stroke-linecap:square;stroke-width:4;"
           id="path312" />
      </g>
      <g
         id="patch_3">
        <path
           d="M 54 252  L 54 34.56  "
           style="fill:none;stroke:#000000;stroke-linecap:square;stroke-linejoin:miter;stroke-width:0.8;"
           id="path315" />
      </g>
      <g
         id="patch_4">
        <path
           d="M 388.8 252  L 388.8 34.56  "
           style="fill:none;stroke:#000000;stroke-linecap:square;stroke-linejoin:miter;stroke-width:0.8;"
           id="path318" />
      </g>
      <g
         id="patch_5">
        <path
           d="M 54 252  L 388.8 252  "
           style="fill:none;stroke:#000000;stroke-linecap:square;stroke-linejoin:miter;stroke-width:0.8;"
           id="path321" />
      </g>
      <g
         id="patch_6">
        <path
           d="M 54 34.56  L 388.8 34.56  "
           style="fill:none;stroke:#000000;stroke-linecap:square;stroke-linejoin:miter;stroke-width:0.8;"
           id="path324" />
      </g>
      <g
         id="text_16">
        <!-- tune_209_B -->
        <defs
           id="defs331">
          <path
             d="M 8.5 21.578125  L 8.5 54.6875  L 17.484375 54.6875  L 17.484375 21.921875  Q 17.484375 14.15625 20.5 10.265625  Q 23.53125 6.390625 29.59375 6.390625  Q 36.859375 6.390625 41.078125 11.03125  Q 45.3125 15.671875 45.3125 23.6875  L 45.3125 54.6875  L 54.296875 54.6875  L 54.296875 0  L 45.3125 0  L 45.3125 8.40625  Q 42.046875 3.421875 37.71875 1  Q 33.40625 -1.421875 27.6875 -1.421875  Q 18.265625 -1.421875 13.375 4.4375  Q 8.5 10.296875 8.5 21.578125  z M 31.109375 56  z "
             id="DejaVuSans-117" />
          <path
             d="M 50.984375 -16.609375  L 50.984375 -23.578125  L -0.984375 -23.578125  L -0.984375 -16.609375  z "
             id="DejaVuSans-95" />
          <path
             d="M 10.984375 1.515625  L 10.984375 10.5  Q 14.703125 8.734375 18.5 7.8125  Q 22.3125 6.890625 25.984375 6.890625  Q 35.75 6.890625 40.890625 13.453125  Q 46.046875 20.015625 46.78125 33.40625  Q 43.953125 29.203125 39.59375 26.953125  Q 35.25 24.703125 29.984375 24.703125  Q 19.046875 24.703125 12.671875 31.3125  Q 6.296875 37.9375 6.296875 49.421875  Q 6.296875 60.640625 12.9375 67.421875  Q 19.578125 74.21875 30.609375 74.21875  Q 43.265625 74.21875 49.921875 64.515625  Q 56.59375 54.828125 56.59375 36.375  Q 56.59375 19.140625 48.40625 8.859375  Q 40.234375 -1.421875 26.421875 -1.421875  Q 22.703125 -1.421875 18.890625 -0.6875  Q 15.09375 0.046875 10.984375 1.515625  z M 30.609375 32.421875  Q 37.25 32.421875 41.125 36.953125  Q 45.015625 41.5 45.015625 49.421875  Q 45.015625 57.28125 41.125 61.84375  Q 37.25 66.40625 30.609375 66.40625  Q 23.96875 66.40625 20.09375 61.84375  Q 16.21875 57.28125 16.21875 49.421875  Q 16.21875 41.5 20.09375 36.953125  Q 23.96875 32.421875 30.609375 32.421875  z "
             id="DejaVuSans-57" />
          <path
             d="M 19.671875 34.8125  L 19.671875 8.109375  L 35.5 8.109375  Q 43.453125 8.109375 47.28125 11.40625  Q 51.125 14.703125 51.125 21.484375  Q 51.125 28.328125 47.28125 31.5625  Q 43.453125 34.8125 35.5 34.8125  z M 19.671875 64.796875  L 19.671875 42.828125  L 34.28125 42.828125  Q 41.5 42.828125 45.03125 45.53125  Q 48.578125 48.25 48.578125 53.8125  Q 48.578125 59.328125 45.03125 62.0625  Q 41.5 64.796875 34.28125 64.796875  z M 9.8125 72.90625  L 35.015625 72.90625  Q 46.296875 72.90625 52.390625 68.21875  Q 58.5 63.53125 58.5 54.890625  Q 58.5 48.1875 55.375 44.234375  Q 52.25 40.28125 46.1875 39.3125  Q 53.46875 37.75 57.5 32.78125  Q 61.53125 27.828125 61.53125 20.40625  Q 61.53125 10.640625 54.890625 5.3125  Q 48.25 0 35.984375 0  L 9.8125 0  z "
             id="DejaVuSans-66" />
        </defs>
        <g
           transform="translate(186.181875 28.56)scale(0.12 -0.12)"
           id="g353">
          <use
             xlink:href="#DejaVuSans-116"
             id="use333" />
          <use
             x="39.208984"
             xlink:href="#DejaVuSans-117"
             id="use335" />
          <use
             x="102.587891"
             xlink:href="#DejaVuSans-110"
             id="use337" />
          <use
             x="165.966797"
             xlink:href="#DejaVuSans-101"
             id="use339" />
          <use
             x="227.490234"
             xlink:href="#DejaVuSans-95"
             id="use341" />
          <use
             x="277.490234"
             xlink:href="#DejaVuSans-50"
             id="use343" />
          <use
             x="341.113281"
             xlink:href="#DejaVuSans-48"
             id="use345" />
          <use
             x="404.736328"
             xlink:href="#DejaVuSans-57"
             id="use347" />
          <use
             x="468.359375"
             xlink:href="#DejaVuSans-95"
             id="use349" />
          <use
             x="518.359375"
             xlink:href="#DejaVuSans-66"
             id="use351" />
        </g>
      </g>
    </g>
  </g>
  <defs
     id="defs481">
    <clipPath
       id="pa7a2b3f54c">
      <rect
         height="217.44"
         width="334.8"
         x="54"
         y="34.56"
         id="rect478" />
    </clipPath>
  </defs>
</svg>
